<svg xmlns="http://www.w3.org/2000/svg" width="25.219" height="25.188" viewBox="0 0 25.219 25.188">
  <metadata><?xpacket begin="﻿" id="W5M0MpCehiHzreSzNTczkc9d"?>
<x:xmpmeta xmlns:x="adobe:ns:meta/" x:xmptk="Adobe XMP Core 5.6-c138 79.159824, 2016/09/14-01:09:01        ">
   <rdf:RDF xmlns:rdf="http://www.w3.org/1999/02/22-rdf-syntax-ns#">
      <rdf:Description rdf:about=""/>
   </rdf:RDF>
</x:xmpmeta>
                                                                                                    
                                                                                                    
                                                                                                    
                                                                                                    
                                                                                                    
                                                                                                    
                                                                                                    
                                                                                                    
                                                                                                    
                                                                                                    
                                                                                                    
                                                                                                    
                                                                                                    
                                                                                                    
                                                                                                    
                                                                                                    
                                                                                                    
                                                                                                    
                                                                                                    
                                                                                                    
                           
<?xpacket end="w"?></metadata>
<defs>
    <style>
      .cls-1 {
        fill: #cc3832;
        fill-rule: evenodd;
      }
    </style>
  </defs>
  <path id="g_" data-name="g+" class="cls-1" d="M788.142,204.086l-0.253-.172a2.832,2.832,0,0,0-.805-0.123H787.05c-1.277,0-2.4.772-2.4,1.652a1.969,1.969,0,0,0,2.184,1.709c1.615,0,2.434-.556,2.434-1.652a1.37,1.37,0,0,0-.038-0.32A2.241,2.241,0,0,0,788.142,204.086Zm-0.905-3.343h0a0.979,0.979,0,0,0,.763-0.349,2,2,0,0,0,.369-1.561,2.211,2.211,0,0,0-1.767-2.056H786.57a0.98,0.98,0,0,0-.754.347,1.942,1.942,0,0,0-.358,1.529,2.274,2.274,0,0,0,1.768,2.091h0.011Zm2.6-11.341A12.6,12.6,0,1,0,802.445,202,12.618,12.618,0,0,0,789.832,189.4Zm-1.454,18.73a5.515,5.515,0,0,1-1.534.207,7.057,7.057,0,0,1-1.721-.205,3.344,3.344,0,0,1-2.179-1.407,1.785,1.785,0,0,1-.234-0.881,2.245,2.245,0,0,1,.225-0.955,4.1,4.1,0,0,1,3.754-2.037h0.048a1.5,1.5,0,0,1-.2-0.748,1.572,1.572,0,0,1,.052-0.395,3.009,3.009,0,0,1-3.066-3.013,3.219,3.219,0,0,1,2.322-2.828,3.82,3.82,0,0,1,1.236-.212h3.751a0.294,0.294,0,0,1,.173.532l-0.839.606a0.3,0.3,0,0,1-.173.055h-0.3a2.91,2.91,0,0,1,.616,1.87,2.789,2.789,0,0,1-1.173,2.187,0.952,0.952,0,0,0-.607.839,2.492,2.492,0,0,0,.863.926,2.9,2.9,0,0,1,1.436,2.673A3.054,3.054,0,0,1,788.378,208.132Zm8.47-6.424a0.3,0.3,0,0,1-.295.294h-2.132v2.129a0.294,0.294,0,0,1-.293.295H793.52a0.3,0.3,0,0,1-.295-0.295V202h-2.131a0.294,0.294,0,0,1-.3-0.294V201.1a0.3,0.3,0,0,1,.3-0.3h2.131v-2.128a0.3,0.3,0,0,1,.295-0.294h0.608a0.294,0.294,0,0,1,.293.294v2.128h2.132a0.3,0.3,0,0,1,.295.294v0.607Z" transform="translate(-777.219 -189.406)"/>
</svg>
