<svg xmlns="http://www.w3.org/2000/svg" width="25.219" height="25.18" viewBox="0 0 25.219 25.18">
  <metadata><?xpacket begin="﻿" id="W5M0MpCehiHzreSzNTczkc9d"?>
<x:xmpmeta xmlns:x="adobe:ns:meta/" x:xmptk="Adobe XMP Core 5.6-c138 79.159824, 2016/09/14-01:09:01        ">
   <rdf:RDF xmlns:rdf="http://www.w3.org/1999/02/22-rdf-syntax-ns#">
      <rdf:Description rdf:about=""/>
   </rdf:RDF>
</x:xmpmeta>
                                                                                                    
                                                                                                    
                                                                                                    
                                                                                                    
                                                                                                    
                                                                                                    
                                                                                                    
                                                                                                    
                                                                                                    
                                                                                                    
                                                                                                    
                                                                                                    
                                                                                                    
                                                                                                    
                                                                                                    
                                                                                                    
                                                                                                    
                                                                                                    
                                                                                                    
                                                                                                    
                           
<?xpacket end="w"?></metadata>
<defs>
    <style>
      .cls-1 {
        fill: #fff;
        fill-rule: evenodd;
        opacity: 0.75;
      }
    </style>
  </defs>
  <path id="g_" data-name="g+" class="cls-1" d="M823.142,3606.09c-0.082-.06-0.165-0.12-0.253-0.18a3.06,3.06,0,0,0-.805-0.12H822.05c-1.277,0-2.4.77-2.4,1.65a1.969,1.969,0,0,0,2.184,1.71c1.615,0,2.434-.55,2.434-1.65a1.408,1.408,0,0,0-.038-0.32A2.209,2.209,0,0,0,823.142,3606.09Zm-0.905-3.35h0a0.976,0.976,0,0,0,.763-0.35,1.991,1.991,0,0,0,.369-1.56,2.2,2.2,0,0,0-1.767-2.05H821.57a1,1,0,0,0-.754.34,1.951,1.951,0,0,0-.358,1.53,2.267,2.267,0,0,0,1.768,2.09h0.011Zm2.6-11.34a12.6,12.6,0,1,0,12.613,12.6A12.62,12.62,0,0,0,824.832,3591.4Zm-1.454,18.73a5.442,5.442,0,0,1-1.534.21,6.865,6.865,0,0,1-1.721-.21,3.338,3.338,0,0,1-2.179-1.4,1.812,1.812,0,0,1-.234-0.88,2.26,2.26,0,0,1,.225-0.96,4.1,4.1,0,0,1,3.754-2.04h0.048a1.471,1.471,0,0,1-.2-0.74,1.628,1.628,0,0,1,.052-0.4,3.008,3.008,0,0,1-3.066-3.01,3.215,3.215,0,0,1,2.322-2.83,3.817,3.817,0,0,1,1.236-.21h3.751a0.294,0.294,0,0,1,.28.2,0.3,0.3,0,0,1-.107.33l-0.839.61a0.342,0.342,0,0,1-.173.05h-0.3a2.93,2.93,0,0,1,.616,1.87,2.8,2.8,0,0,1-1.173,2.19,0.948,0.948,0,0,0-.607.84,2.452,2.452,0,0,0,.863.92,2.907,2.907,0,0,1,1.436,2.68A3.051,3.051,0,0,1,823.378,3610.13Zm8.47-6.42a0.293,0.293,0,0,1-.295.29h-2.132v2.13a0.3,0.3,0,0,1-.293.3H828.52a0.3,0.3,0,0,1-.295-0.3V3604h-2.131a0.293,0.293,0,0,1-.3-0.29v-0.61a0.293,0.293,0,0,1,.3-0.29h2.131v-2.13a0.3,0.3,0,0,1,.295-0.3h0.608a0.3,0.3,0,0,1,.293.3v2.13h2.132a0.293,0.293,0,0,1,.295.29v0.61Z" transform="translate(-812.219 -3591.41)"/>
</svg>
