<svg xmlns="http://www.w3.org/2000/svg" width="100" height="100" viewBox="0 0 100 100">
  <metadata><?xpacket begin="﻿" id="W5M0MpCehiHzreSzNTczkc9d"?>
<x:xmpmeta xmlns:x="adobe:ns:meta/" x:xmptk="Adobe XMP Core 5.6-c138 79.159824, 2016/09/14-01:09:01        ">
   <rdf:RDF xmlns:rdf="http://www.w3.org/1999/02/22-rdf-syntax-ns#">
      <rdf:Description rdf:about=""/>
   </rdf:RDF>
</x:xmpmeta>
                                                                                                    
                                                                                                    
                                                                                                    
                                                                                                    
                                                                                                    
                                                                                                    
                                                                                                    
                                                                                                    
                                                                                                    
                                                                                                    
                                                                                                    
                                                                                                    
                                                                                                    
                                                                                                    
                                                                                                    
                                                                                                    
                                                                                                    
                                                                                                    
                                                                                                    
                                                                                                    
                           
<?xpacket end="w"?></metadata>
<defs>
    <style>
      .cls-1 {
        fill: #fff;
        fill-rule: evenodd;
      }
    </style>
  </defs>
  <path id="FAQ" class="cls-1" d="M635.837,115.469h-8.29l-23.884,25.874a2.041,2.041,0,0,1-3.541-1.384v-24.49H552.163A8.172,8.172,0,0,1,544,107.306V50.163A8.172,8.172,0,0,1,552.163,42h83.674A8.172,8.172,0,0,1,644,50.163v57.143A8.172,8.172,0,0,1,635.837,115.469Zm4.081-65.306a4.086,4.086,0,0,0-4.081-4.082H552.163a4.086,4.086,0,0,0-4.081,4.082v57.143a4.086,4.086,0,0,0,4.081,4.082h50a2.04,2.04,0,0,1,2.041,2.04v21.311l20.949-22.7a2.044,2.044,0,0,1,1.5-.656h9.184a4.086,4.086,0,0,0,4.081-4.082V50.163Zm-76.6,37.972V67.715h16.493v4.9h-9.942v3.507h8.55V80.8h-8.55v7.333h-6.551Zm39.107,0h-6.942l-0.87-2.884h-7.144l-0.87,2.884h-6.71l7.464-20.42h7.623ZM590.994,73.411l-2.159,7.275h4.42l-2.13-7.275h-0.131Zm14.666,9.058a8.607,8.607,0,0,0,2.087,3.283,8.953,8.953,0,0,0,3.362,2.015,14.658,14.658,0,0,0,4.543.732l3.16,3.522h7.8l-4.652-4.71a8.564,8.564,0,0,0,3.739-3.558,11.86,11.86,0,0,0,1.3-5.833,12.968,12.968,0,0,0-.746-4.587,8.633,8.633,0,0,0-2.16-3.3,9.148,9.148,0,0,0-3.471-2,16.467,16.467,0,0,0-9.326,0,9.157,9.157,0,0,0-3.464,2,8.56,8.56,0,0,0-2.152,3.3A14.692,14.692,0,0,0,605.66,82.469Zm14.63-3.594a6.461,6.461,0,0,1-.268,1.913,4.05,4.05,0,0,1-.812,1.493,3.7,3.7,0,0,1-1.355.971,5.336,5.336,0,0,1-3.79,0,3.645,3.645,0,0,1-1.34-.971,4.111,4.111,0,0,1-.805-1.493,6.461,6.461,0,0,1-.268-1.913v-1.9a6.461,6.461,0,0,1,.268-1.913,4.113,4.113,0,0,1,.805-1.493,3.647,3.647,0,0,1,1.34-.971,5.336,5.336,0,0,1,3.79,0,3.7,3.7,0,0,1,1.355.971,4.052,4.052,0,0,1,.812,1.493,6.461,6.461,0,0,1,.268,1.913v1.9Z" transform="translate(-544 -42)"/>
</svg>
