<svg id="eye" xmlns="http://www.w3.org/2000/svg" width="24" height="24" viewBox="0 0 24 24">
  <metadata><?xpacket begin="﻿" id="W5M0MpCehiHzreSzNTczkc9d"?>
<x:xmpmeta xmlns:x="adobe:ns:meta/" x:xmptk="Adobe XMP Core 5.6-c138 79.159824, 2016/09/14-01:09:01        ">
   <rdf:RDF xmlns:rdf="http://www.w3.org/1999/02/22-rdf-syntax-ns#">
      <rdf:Description rdf:about=""/>
   </rdf:RDF>
</x:xmpmeta>
                                                                                                    
                                                                                                    
                                                                                                    
                                                                                                    
                                                                                                    
                                                                                                    
                                                                                                    
                                                                                                    
                                                                                                    
                                                                                                    
                                                                                                    
                                                                                                    
                                                                                                    
                                                                                                    
                                                                                                    
                                                                                                    
                                                                                                    
                                                                                                    
                                                                                                    
                                                                                                    
                           
<?xpacket end="w"?></metadata>
<defs>
    <style>
      .cls-1 {
        fill: #292b43;
        opacity: 0.5;
      }

      .cls-2 {
        fill: #fff;
        fill-rule: evenodd;
      }
    </style>
  </defs>
  <circle class="cls-1" cx="12" cy="12" r="12"/>
  <path id="Forma_1" data-name="Forma 1" class="cls-2" d="M692.655,19.7a9.086,9.086,0,0,0-1.768-1.731,7.793,7.793,0,0,0-9.774,0,9.086,9.086,0,0,0-1.768,1.731,0.508,0.508,0,0,0,0,.592,9.1,9.1,0,0,0,1.768,1.731,7.794,7.794,0,0,0,9.774,0,9.094,9.094,0,0,0,1.768-1.731A0.508,0.508,0,0,0,692.655,19.7Zm-3.993.3A2.664,2.664,0,1,1,686,17.237,2.717,2.717,0,0,1,688.662,20Zm-8.314,0a8.755,8.755,0,0,1,2.618-2.031,3.854,3.854,0,0,0,0,4.068,8.252,8.252,0,0,1-1.272-.789A8.862,8.862,0,0,1,680.348,20Zm9.955,1.248a8.252,8.252,0,0,1-1.272.789,3.857,3.857,0,0,0,0-4.075,8.261,8.261,0,0,1,1.272.789A8.863,8.863,0,0,1,691.652,20,8.857,8.857,0,0,1,690.3,21.248ZM686,19.186a0.815,0.815,0,1,1-.784.814A0.8,0.8,0,0,1,686,19.186Z" transform="translate(-674 -8)"/>
</svg>
