<svg width="92" height="18" viewBox="0 0 92 18" fill="none" xmlns="http://www.w3.org/2000/svg">
<path fill-rule="evenodd" clip-rule="evenodd" d="M10.7498 17.6129C11.4659 17.4068 12.15 17.1059 12.7831 16.7183C13.4128 16.3315 13.9878 15.8649 14.4931 15.3307C15.0078 14.7873 15.4503 14.1822 15.8101 13.5299C16.5679 12.1475 16.9646 10.6026 16.9646 9.03316C16.9646 7.46374 16.5679 5.91878 15.8101 4.53641C15.4503 3.88409 15.0078 3.27901 14.4931 2.7356C13.9878 2.20138 13.4128 1.73484 12.7831 1.34806C12.15 0.960357 11.4659 0.659255 10.7498 0.453099C9.26125 0.0300767 7.6808 0.0300767 6.19227 0.453099C5.47827 0.660075 4.79625 0.961144 4.16489 1.34806C3.53511 1.73467 2.96024 2.20123 2.45522 2.7356C1.94084 3.27803 1.50006 3.8833 1.14379 4.53641C0.388472 5.9213 -0.00451183 7.46832 7.43045e-05 9.03877C-0.00313762 9.83718 0.0977931 10.6327 0.300413 11.406C0.494011 12.1445 0.777156 12.8575 1.14379 13.5299C1.50006 14.183 1.94084 14.7883 2.45522 15.3307C2.96024 15.8651 3.53511 16.3316 4.16489 16.7183C4.79626 17.1051 5.47829 17.406 6.19227 17.6129C7.6808 18.0359 9.26125 18.0359 10.7498 17.6129ZM6.64295 13.949C6.08851 13.6659 5.60053 13.2724 5.21035 12.7936C4.79793 12.2853 4.47926 11.7103 4.26871 11.0946C4.03895 10.4327 3.92382 9.73787 3.92809 9.03877C3.92352 8.33409 4.03863 7.63358 4.26871 6.96597C4.47831 6.348 4.79704 5.77096 5.21035 5.26116C5.60055 4.78245 6.08852 4.38903 6.64295 4.10612C7.20925 3.82688 7.83435 3.68144 8.46825 3.68144C9.10214 3.68144 9.72724 3.82688 10.2935 4.10612C10.849 4.38995 11.3387 4.78317 11.732 5.26116C12.1479 5.76926 12.4668 6.34679 12.6733 6.96597C13.1181 8.30731 13.1201 9.75199 12.6792 11.0946C12.4757 11.711 12.1608 12.2865 11.7494 12.7936C11.3578 13.2733 10.8677 13.667 10.3109 13.949C9.74081 14.2347 9.10847 14.3803 8.46825 14.3735C7.83362 14.3799 7.20701 14.2342 6.64295 13.949ZM17.6881 3.10359H19.5367V14.5209H17.6881V17.6244H24.3081V14.5209H23.0835V12.5955H24.8855L28.7673 17.6244H32.0138V14.2152H30.0253L27.7493 11.5194L29.9791 8.9935H32.1277V5.88991H25.9369V8.9935L25.1036 10.1601H23.0821V0H17.6881V3.10359ZM33.7988 8.13836C33.8986 8.37773 34.0459 8.59527 34.2321 8.77835C34.4196 8.96146 34.6412 9.10754 34.8849 9.20864C35.1423 9.3159 35.4194 9.3699 35.6991 9.36727C35.9694 9.36875 36.2371 9.31471 36.4848 9.20864C36.9742 9.00276 37.3632 8.61921 37.5706 8.13836C37.6774 7.88912 37.7324 7.62149 37.7324 7.35115C37.7324 7.0808 37.6774 6.81318 37.5706 6.56393C37.4674 6.32505 37.3184 6.1078 37.1317 5.92395C36.9456 5.74182 36.7262 5.59573 36.4848 5.49332C36.237 5.38752 35.9694 5.3336 35.6991 5.33502C35.4195 5.33245 35.1423 5.38634 34.8849 5.49332C34.6412 5.59454 34.4196 5.74074 34.2321 5.92395C34.0458 6.10697 33.8985 6.32452 33.7988 6.56393C33.5912 7.06905 33.5907 7.63342 33.7988 8.13836ZM33.7988 16.7693C33.8985 17.0093 34.0461 17.2273 34.2328 17.4107C34.4203 17.5939 34.6419 17.7401 34.8856 17.8413C35.143 17.9484 35.4202 18.0024 35.6998 17.9999C35.9701 18.0012 36.2377 17.9472 36.4855 17.8413C36.7268 17.7389 36.9463 17.5928 37.1324 17.4107C37.3191 17.2269 37.4681 17.0098 37.5713 16.771C37.6781 16.5218 37.7331 16.2541 37.7331 15.9838C37.7331 15.7135 37.6781 15.4458 37.5713 15.1966C37.4672 14.9561 37.3184 14.7368 37.1324 14.5498C36.9475 14.3649 36.7278 14.2168 36.4855 14.1137C36.2377 14.0078 35.9701 13.9538 35.6998 13.9551C35.2927 13.9513 34.8939 14.0676 34.5551 14.2888C34.2162 14.51 33.953 14.8259 33.7995 15.1956C33.5918 15.7004 33.5911 16.2645 33.7988 16.7693ZM39.0389 8.9935H40.7948V14.5209H39.0181V17.6244H46.4582V14.5209H44.5388V9.97901C44.8459 9.56669 45.2528 9.23574 45.7228 9.01596C46.0985 8.84973 46.5064 8.76474 46.9186 8.76678C47.1944 8.77101 47.4669 8.82681 47.7213 8.9312C47.9586 9.02936 48.1729 9.17392 48.3512 9.35604C48.5338 9.54515 48.6755 9.76852 48.7678 10.0127C48.8713 10.2882 48.9223 10.58 48.9182 10.8736V17.6244H54.3826V14.5209H52.6497V10.3582C52.6497 10.2715 52.6459 10.1867 52.6382 10.1036C52.9371 9.68244 53.3247 9.32899 53.7747 9.06703C54.1489 8.86874 54.5679 8.76552 54.9934 8.76678C55.2643 8.75191 55.5352 8.79485 55.7875 8.89265C56.0398 8.99045 56.2675 9.14077 56.4548 9.33323C56.8264 9.76979 57.0144 10.3288 56.9805 10.8964V17.6244H62.4449V14.5209H60.7467V10.3187C60.7467 8.79345 60.3539 7.63432 59.5682 6.84137C58.7826 6.04843 57.6582 5.65195 56.1951 5.65195C55.7845 5.65138 55.3754 5.69892 54.9764 5.79357C54.5839 5.88663 54.2025 6.01955 53.8382 6.19016C53.479 6.35844 53.1366 6.55937 52.8156 6.79031C52.5026 7.0152 52.2142 7.27144 51.9553 7.55489C51.6077 6.93411 51.073 6.43371 50.4244 6.12207C49.6916 5.79172 48.8911 5.63087 48.0849 5.65195C47.4337 5.65162 46.7879 5.76696 46.1787 5.99237C45.5781 6.21064 45.0167 6.52087 44.5152 6.9115V5.89195H39.0396V8.99554L39.0389 8.9935ZM70.3367 17.6244H75.3275V14.5209H73.7217V10.2507C73.7421 9.51505 73.6105 8.78299 73.3349 8.09854C73.1019 7.54334 72.7352 7.05173 72.2662 6.66572C71.7869 6.2875 71.2289 6.01687 70.6315 5.87289C69.9536 5.70548 69.2566 5.62369 68.5576 5.62949C67.6298 5.62402 66.7071 5.76553 65.8254 6.04854C64.9496 6.33682 64.1197 6.74481 63.3601 7.26043L64.4695 9.45782C64.9729 9.19551 65.5061 8.99213 66.058 8.85188C66.6838 8.70364 67.326 8.63318 67.9697 8.64219C68.292 8.6398 68.6136 8.6721 68.9287 8.73852C69.1967 8.79281 69.4516 8.89681 69.6798 9.0449C69.8841 9.18034 70.0511 9.36324 70.1659 9.57731C70.2867 9.81441 70.3463 10.0769 70.3395 10.3419V10.7044C69.9545 10.6214 69.5367 10.5515 69.086 10.4947C68.5896 10.4356 68.0899 10.4072 67.5899 10.41C66.915 10.3997 66.2426 10.4933 65.5972 10.6874C65.0603 10.8491 64.5601 11.1106 64.124 11.4578C63.7297 11.7784 63.4156 12.1833 63.2056 12.6414C62.997 13.1141 62.8889 13.6236 62.8879 14.1387C62.887 14.6538 62.9932 15.1636 63.2001 15.6371C63.4068 16.0926 63.7123 16.4985 64.0952 16.8265C64.5154 17.1799 65.0021 17.4492 65.5278 17.6193C66.148 17.8203 66.7982 17.9178 67.4514 17.908C67.7142 17.9096 67.9768 17.8926 68.2371 17.8573C68.7147 17.7903 69.1763 17.6404 69.6003 17.4147C69.8234 17.2976 70.0698 17.156 70.3395 16.9899V17.6244H70.3367ZM66.5302 14.8834C66.4054 14.774 66.3062 14.6394 66.2394 14.4888C66.1725 14.3383 66.1397 14.1754 66.1431 14.0113C66.1393 13.8377 66.1812 13.666 66.2646 13.5129C66.3443 13.3705 66.4546 13.2468 66.5879 13.1503C66.7262 13.0505 66.8805 12.9739 67.0444 12.9236C67.2128 12.8711 67.3885 12.8445 67.5652 12.8446H70.3367V14.3398C69.99 14.6061 69.6045 14.8199 69.193 14.974C68.7176 15.1527 68.2118 15.2411 67.7027 15.2344C67.2807 15.2668 66.8618 15.1414 66.5302 14.8834ZM76.8188 8.99418H78.6212V14.5215H76.8188V17.6251H83.8544V14.5215H82.1909V5.88991H76.8188V8.99418ZM78.592 2.89457C78.692 3.13385 78.8392 3.35136 79.0254 3.53456C79.2129 3.7177 79.4344 3.86388 79.6781 3.96519C79.9356 4.07234 80.2129 4.12623 80.4927 4.12348C80.7629 4.12504 81.0304 4.07112 81.2781 3.96519C81.7675 3.7592 82.1567 3.37555 82.3641 2.89457C82.4709 2.64533 82.5259 2.3777 82.5259 2.10736C82.5259 1.83701 82.4709 1.56939 82.3641 1.32014C82.1565 0.839349 81.7674 0.455862 81.2781 0.24987C81.0304 0.143986 80.7629 0.089955 80.4927 0.0912338C80.2129 0.0887707 79.9357 0.14277 79.6781 0.24987C79.4344 0.35118 79.2129 0.497362 79.0254 0.680498C78.8393 0.863635 78.6921 1.08101 78.592 1.32014C78.3844 1.82497 78.3844 2.38974 78.592 2.89457ZM84.7564 3.10427H86.605V14.5215H84.7564V17.6251H92V14.5215H90.1514V0H84.7564V3.10427Z" fill="white"/>
</svg>
