<svg width="980" height="582" viewBox="0 0 980 582" fill="none" xmlns="http://www.w3.org/2000/svg">
<rect width="1" height="200" transform="translate(73 190)" fill="white"/>
<path d="M11.968 7.644V10.064H7.876V23H4.796V10.064H0.704V7.644H11.968ZM21.0793 10.636C22.0033 10.636 22.8246 10.8413 23.5433 11.252C24.2619 11.648 24.8193 12.242 25.2153 13.034C25.6259 13.8113 25.8313 14.75 25.8313 15.85V23H22.7513V16.268C22.7513 15.3 22.5093 14.5593 22.0253 14.046C21.5413 13.518 20.8813 13.254 20.0453 13.254C19.1946 13.254 18.5199 13.518 18.0213 14.046C17.5373 14.5593 17.2953 15.3 17.2953 16.268V23H14.2153V6.72H17.2953V12.33C17.6913 11.802 18.2193 11.3913 18.8793 11.098C19.5393 10.79 20.2726 10.636 21.0793 10.636ZM40.0902 16.62C40.0902 17.0307 40.0609 17.412 40.0022 17.764H31.0922C31.1509 18.6587 31.4515 19.3627 31.9942 19.876C32.5369 20.3893 33.2115 20.646 34.0182 20.646C35.1622 20.646 35.9762 20.1547 36.4602 19.172H39.7822C39.4302 20.3453 38.7555 21.3133 37.7582 22.076C36.7609 22.824 35.5362 23.198 34.0842 23.198C32.9109 23.198 31.8549 22.9413 30.9162 22.428C29.9922 21.9 29.2662 21.1593 28.7382 20.206C28.2249 19.2527 27.9682 18.1527 27.9682 16.906C27.9682 15.6447 28.2249 14.5373 28.7382 13.584C29.2515 12.6307 29.9702 11.8973 30.8942 11.384C31.8182 10.8707 32.8815 10.614 34.0842 10.614C35.2429 10.614 36.2769 10.8633 37.1862 11.362C38.1102 11.8607 38.8215 12.5647 39.3202 13.474C39.8335 14.3833 40.0902 15.432 40.0902 16.62ZM36.9002 15.894C36.8855 15.0433 36.5995 14.376 36.0422 13.892C35.4995 13.3933 34.8175 13.144 33.9962 13.144C33.2189 13.144 32.5662 13.3933 32.0382 13.892C31.5102 14.376 31.1949 15.0433 31.0922 15.894H36.9002ZM63.361 10.636C64.857 10.636 66.0597 11.098 66.969 12.022C67.893 12.9313 68.355 14.2073 68.355 15.85V23H65.275V16.268C65.275 15.3147 65.033 14.5887 64.549 14.09C64.065 13.5767 63.405 13.32 62.569 13.32C61.733 13.32 61.0657 13.5767 60.567 14.09C60.083 14.5887 59.841 15.3147 59.841 16.268V23H56.761V16.268C56.761 15.3147 56.519 14.5887 56.035 14.09C55.551 13.5767 54.891 13.32 54.055 13.32C53.2044 13.32 52.5297 13.5767 52.031 14.09C51.547 14.5887 51.305 15.3147 51.305 16.268V23H48.225V10.812H51.305V12.286C51.701 11.7727 52.207 11.3693 52.823 11.076C53.4537 10.7827 54.143 10.636 54.891 10.636C55.8444 10.636 56.695 10.8413 57.443 11.252C58.191 11.648 58.7704 12.22 59.181 12.968C59.577 12.264 60.149 11.6993 60.897 11.274C61.6597 10.8487 62.481 10.636 63.361 10.636ZM72.8398 9.36C72.2971 9.36 71.8424 9.19133 71.4758 8.854C71.1238 8.502 70.9478 8.06933 70.9478 7.556C70.9478 7.04267 71.1238 6.61733 71.4758 6.28C71.8424 5.928 72.2971 5.752 72.8398 5.752C73.3824 5.752 73.8298 5.928 74.1818 6.28C74.5484 6.61733 74.7318 7.04267 74.7318 7.556C74.7318 8.06933 74.5484 8.502 74.1818 8.854C73.8298 9.19133 73.3824 9.36 72.8398 9.36ZM74.3578 10.812V23H71.2778V10.812H74.3578ZM76.6088 16.862C76.6088 15.63 76.8508 14.5373 77.3348 13.584C77.8335 12.6307 78.5081 11.8973 79.3588 11.384C80.2095 10.8707 81.1555 10.614 82.1968 10.614C82.9888 10.614 83.7441 10.79 84.4628 11.142C85.1815 11.4793 85.7535 11.934 86.1788 12.506V6.72H89.3028V23H86.1788V21.196C85.7975 21.7973 85.2621 22.2813 84.5728 22.648C83.8835 23.0147 83.0841 23.198 82.1748 23.198C81.1481 23.198 80.2095 22.934 79.3588 22.406C78.5081 21.878 77.8335 21.1373 77.3348 20.184C76.8508 19.216 76.6088 18.1087 76.6088 16.862ZM86.2008 16.906C86.2008 16.158 86.0541 15.52 85.7608 14.992C85.4675 14.4493 85.0715 14.0387 84.5728 13.76C84.0741 13.4667 83.5388 13.32 82.9668 13.32C82.3948 13.32 81.8668 13.4593 81.3828 13.738C80.8988 14.0167 80.5028 14.4273 80.1948 14.97C79.9015 15.498 79.7548 16.1287 79.7548 16.862C79.7548 17.5953 79.9015 18.2407 80.1948 18.798C80.5028 19.3407 80.8988 19.7587 81.3828 20.052C81.8815 20.3453 82.4095 20.492 82.9668 20.492C83.5388 20.492 84.0741 20.3527 84.5728 20.074C85.0715 19.7807 85.4675 19.37 85.7608 18.842C86.0541 18.2993 86.2008 17.654 86.2008 16.906ZM91.519 16.862C91.519 15.63 91.761 14.5373 92.245 13.584C92.7436 12.6307 93.4183 11.8973 94.269 11.384C95.1196 10.8707 96.0656 10.614 97.107 10.614C97.899 10.614 98.6543 10.79 99.373 11.142C100.092 11.4793 100.664 11.934 101.089 12.506V6.72H104.213V23H101.089V21.196C100.708 21.7973 100.172 22.2813 99.483 22.648C98.7936 23.0147 97.9943 23.198 97.085 23.198C96.0583 23.198 95.1196 22.934 94.269 22.406C93.4183 21.878 92.7436 21.1373 92.245 20.184C91.761 19.216 91.519 18.1087 91.519 16.862ZM101.111 16.906C101.111 16.158 100.964 15.52 100.671 14.992C100.378 14.4493 99.9816 14.0387 99.483 13.76C98.9843 13.4667 98.449 13.32 97.877 13.32C97.305 13.32 96.777 13.4593 96.293 13.738C95.809 14.0167 95.413 14.4273 95.105 14.97C94.8116 15.498 94.665 16.1287 94.665 16.862C94.665 17.5953 94.8116 18.2407 95.105 18.798C95.413 19.3407 95.809 19.7587 96.293 20.052C96.7916 20.3453 97.3196 20.492 97.877 20.492C98.449 20.492 98.9843 20.3527 99.483 20.074C99.9816 19.7807 100.378 19.37 100.671 18.842C100.964 18.2993 101.111 17.654 101.111 16.906ZM110.301 6.72V23H107.221V6.72H110.301ZM124.674 16.62C124.674 17.0307 124.645 17.412 124.586 17.764H115.676C115.735 18.6587 116.036 19.3627 116.578 19.876C117.121 20.3893 117.796 20.646 118.602 20.646C119.746 20.646 120.56 20.1547 121.044 19.172H124.366C124.014 20.3453 123.34 21.3133 122.342 22.076C121.345 22.824 120.12 23.198 118.668 23.198C117.495 23.198 116.439 22.9413 115.5 22.428C114.576 21.9 113.85 21.1593 113.322 20.206C112.809 19.2527 112.552 18.1527 112.552 16.906C112.552 15.6447 112.809 14.5373 113.322 13.584C113.836 12.6307 114.554 11.8973 115.478 11.384C116.402 10.8707 117.466 10.614 118.668 10.614C119.827 10.614 120.861 10.8633 121.77 11.362C122.694 11.8607 123.406 12.5647 123.904 13.474C124.418 14.3833 124.674 15.432 124.674 16.62ZM121.484 15.894C121.47 15.0433 121.184 14.376 120.626 13.892C120.084 13.3933 119.402 13.144 118.58 13.144C117.803 13.144 117.15 13.3933 116.622 13.892C116.094 14.376 115.779 15.0433 115.676 15.894H121.484ZM138.221 23.198C137.048 23.198 135.992 22.9413 135.053 22.428C134.114 21.9 133.374 21.1593 132.831 20.206C132.303 19.2527 132.039 18.1527 132.039 16.906C132.039 15.6593 132.31 14.5593 132.853 13.606C133.41 12.6527 134.166 11.9193 135.119 11.406C136.072 10.878 137.136 10.614 138.309 10.614C139.482 10.614 140.546 10.878 141.499 11.406C142.452 11.9193 143.2 12.6527 143.743 13.606C144.3 14.5593 144.579 15.6593 144.579 16.906C144.579 18.1527 144.293 19.2527 143.721 20.206C143.164 21.1593 142.401 21.9 141.433 22.428C140.48 22.9413 139.409 23.198 138.221 23.198ZM138.221 20.558C138.778 20.558 139.299 20.4187 139.783 20.14C140.282 19.8613 140.678 19.4507 140.971 18.908C141.264 18.3507 141.411 17.6833 141.411 16.906C141.411 16.1287 141.264 15.4687 140.971 14.926C140.678 14.3687 140.289 13.9507 139.805 13.672C139.336 13.3933 138.822 13.254 138.265 13.254C137.4 13.254 136.666 13.5767 136.065 14.222C135.464 14.8527 135.163 15.7473 135.163 16.906C135.163 18.0647 135.456 18.9667 136.043 19.612C136.63 20.2427 137.356 20.558 138.221 20.558ZM152.426 13.342H150.292V23H147.168V13.342H145.782V10.812H147.168V10.196C147.168 8.7 147.594 7.6 148.444 6.896C149.295 6.192 150.578 5.862 152.294 5.906V8.502C151.546 8.48733 151.026 8.612 150.732 8.876C150.439 9.14 150.292 9.61667 150.292 10.306V10.812H152.426V13.342ZM163.895 13.342V19.238C163.895 19.6487 163.99 19.9493 164.181 20.14C164.386 20.316 164.724 20.404 165.193 20.404H166.623V23H164.687C162.091 23 160.793 21.7387 160.793 19.216V13.342H159.341V10.812H160.793V7.798H163.895V10.812H166.623V13.342H163.895ZM175.702 10.636C176.626 10.636 177.448 10.8413 178.166 11.252C178.885 11.648 179.442 12.242 179.838 13.034C180.249 13.8113 180.454 14.75 180.454 15.85V23H177.374V16.268C177.374 15.3 177.132 14.5593 176.648 14.046C176.164 13.518 175.504 13.254 174.668 13.254C173.818 13.254 173.143 13.518 172.644 14.046C172.16 14.5593 171.918 15.3 171.918 16.268V23H168.838V6.72H171.918V12.33C172.314 11.802 172.842 11.3913 173.502 11.098C174.162 10.79 174.896 10.636 175.702 10.636ZM194.713 16.62C194.713 17.0307 194.684 17.412 194.625 17.764H185.715C185.774 18.6587 186.075 19.3627 186.617 19.876C187.16 20.3893 187.835 20.646 188.641 20.646C189.785 20.646 190.599 20.1547 191.083 19.172H194.405C194.053 20.3453 193.379 21.3133 192.381 22.076C191.384 22.824 190.159 23.198 188.707 23.198C187.534 23.198 186.478 22.9413 185.539 22.428C184.615 21.9 183.889 21.1593 183.361 20.206C182.848 19.2527 182.591 18.1527 182.591 16.906C182.591 15.6447 182.848 14.5373 183.361 13.584C183.875 12.6307 184.593 11.8973 185.517 11.384C186.441 10.8707 187.505 10.614 188.707 10.614C189.866 10.614 190.9 10.8633 191.809 11.362C192.733 11.8607 193.445 12.5647 193.943 13.474C194.457 14.3833 194.713 15.432 194.713 16.62ZM191.523 15.894C191.509 15.0433 191.223 14.376 190.665 13.892C190.123 13.3933 189.441 13.144 188.619 13.144C187.842 13.144 187.189 13.3933 186.661 13.892C186.133 14.376 185.818 15.0433 185.715 15.894H191.523ZM209.976 23.154C208.539 23.154 207.219 22.8167 206.016 22.142C204.813 21.4673 203.86 20.536 203.156 19.348C202.452 18.1453 202.1 16.7887 202.1 15.278C202.1 13.782 202.452 12.44 203.156 11.252C203.86 10.0493 204.813 9.11067 206.016 8.436C207.219 7.76133 208.539 7.424 209.976 7.424C211.428 7.424 212.748 7.76133 213.936 8.436C215.139 9.11067 216.085 10.0493 216.774 11.252C217.478 12.44 217.83 13.782 217.83 15.278C217.83 16.7887 217.478 18.1453 216.774 19.348C216.085 20.536 215.139 21.4673 213.936 22.142C212.733 22.8167 211.413 23.154 209.976 23.154ZM209.976 20.316C210.9 20.316 211.714 20.1107 212.418 19.7C213.122 19.2747 213.672 18.688 214.068 17.94C214.464 17.1773 214.662 16.29 214.662 15.278C214.662 14.266 214.464 13.386 214.068 12.638C213.672 11.8753 213.122 11.2887 212.418 10.878C211.714 10.4673 210.9 10.262 209.976 10.262C209.052 10.262 208.231 10.4673 207.512 10.878C206.808 11.2887 206.258 11.8753 205.862 12.638C205.466 13.386 205.268 14.266 205.268 15.278C205.268 16.29 205.466 17.1773 205.862 17.94C206.258 18.688 206.808 19.2747 207.512 19.7C208.231 20.1107 209.052 20.316 209.976 20.316ZM219.33 16.906C219.33 15.6447 219.586 14.5447 220.1 13.606C220.613 12.6527 221.324 11.9193 222.234 11.406C223.143 10.878 224.184 10.614 225.358 10.614C226.868 10.614 228.115 10.9953 229.098 11.758C230.095 12.506 230.762 13.562 231.1 14.926H227.778C227.602 14.398 227.301 13.9873 226.876 13.694C226.465 13.386 225.952 13.232 225.336 13.232C224.456 13.232 223.759 13.5547 223.246 14.2C222.732 14.8307 222.476 15.7327 222.476 16.906C222.476 18.0647 222.732 18.9667 223.246 19.612C223.759 20.2427 224.456 20.558 225.336 20.558C226.582 20.558 227.396 20.0007 227.778 18.886H231.1C230.762 20.206 230.095 21.2547 229.098 22.032C228.1 22.8093 226.854 23.198 225.358 23.198C224.184 23.198 223.143 22.9413 222.234 22.428C221.324 21.9 220.613 21.1667 220.1 20.228C219.586 19.2747 219.33 18.1673 219.33 16.906ZM236.942 13.342V19.238C236.942 19.6487 237.037 19.9493 237.228 20.14C237.433 20.316 237.771 20.404 238.24 20.404H239.67V23H237.734C235.138 23 233.84 21.7387 233.84 19.216V13.342H232.388V10.812H233.84V7.798H236.942V10.812H239.67V13.342H236.942ZM247.297 23.198C246.124 23.198 245.068 22.9413 244.129 22.428C243.191 21.9 242.45 21.1593 241.907 20.206C241.379 19.2527 241.115 18.1527 241.115 16.906C241.115 15.6593 241.387 14.5593 241.929 13.606C242.487 12.6527 243.242 11.9193 244.195 11.406C245.149 10.878 246.212 10.614 247.385 10.614C248.559 10.614 249.622 10.878 250.575 11.406C251.529 11.9193 252.277 12.6527 252.819 13.606C253.377 14.5593 253.655 15.6593 253.655 16.906C253.655 18.1527 253.369 19.2527 252.797 20.206C252.24 21.1593 251.477 21.9 250.509 22.428C249.556 22.9413 248.485 23.198 247.297 23.198ZM247.297 20.558C247.855 20.558 248.375 20.4187 248.859 20.14C249.358 19.8613 249.754 19.4507 250.047 18.908C250.341 18.3507 250.487 17.6833 250.487 16.906C250.487 16.1287 250.341 15.4687 250.047 14.926C249.754 14.3687 249.365 13.9507 248.881 13.672C248.412 13.3933 247.899 13.254 247.341 13.254C246.476 13.254 245.743 13.5767 245.141 14.222C244.54 14.8527 244.239 15.7473 244.239 16.906C244.239 18.0647 244.533 18.9667 245.119 19.612C245.706 20.2427 246.432 20.558 247.297 20.558ZM258.994 12.594C259.39 12.0073 259.933 11.5307 260.622 11.164C261.326 10.7973 262.126 10.614 263.02 10.614C264.062 10.614 265 10.8707 265.836 11.384C266.687 11.8973 267.354 12.6307 267.838 13.584C268.337 14.5227 268.586 15.6153 268.586 16.862C268.586 18.1087 268.337 19.216 267.838 20.184C267.354 21.1373 266.687 21.878 265.836 22.406C265 22.934 264.062 23.198 263.02 23.198C262.111 23.198 261.312 23.022 260.622 22.67C259.948 22.3033 259.405 21.834 258.994 21.262V23H255.914V6.72H258.994V12.594ZM265.44 16.862C265.44 16.1287 265.286 15.498 264.978 14.97C264.685 14.4273 264.289 14.0167 263.79 13.738C263.306 13.4593 262.778 13.32 262.206 13.32C261.649 13.32 261.121 13.4667 260.622 13.76C260.138 14.0387 259.742 14.4493 259.434 14.992C259.141 15.5347 258.994 16.1727 258.994 16.906C258.994 17.6393 259.141 18.2773 259.434 18.82C259.742 19.3627 260.138 19.7807 260.622 20.074C261.121 20.3527 261.649 20.492 262.206 20.492C262.778 20.492 263.306 20.3453 263.79 20.052C264.289 19.7587 264.685 19.3407 264.978 18.798C265.286 18.2553 265.44 17.61 265.44 16.862ZM282.155 16.62C282.155 17.0307 282.125 17.412 282.067 17.764H273.157C273.215 18.6587 273.516 19.3627 274.059 19.876C274.601 20.3893 275.276 20.646 276.083 20.646C277.227 20.646 278.041 20.1547 278.525 19.172H281.847C281.495 20.3453 280.82 21.3133 279.823 22.076C278.825 22.824 277.601 23.198 276.149 23.198C274.975 23.198 273.919 22.9413 272.981 22.428C272.057 21.9 271.331 21.1593 270.803 20.206C270.289 19.2527 270.033 18.1527 270.033 16.906C270.033 15.6447 270.289 14.5373 270.803 13.584C271.316 12.6307 272.035 11.8973 272.959 11.384C273.883 10.8707 274.946 10.614 276.149 10.614C277.307 10.614 278.341 10.8633 279.251 11.362C280.175 11.8607 280.886 12.5647 281.385 13.474C281.898 14.3833 282.155 15.432 282.155 16.62ZM278.965 15.894C278.95 15.0433 278.664 14.376 278.107 13.892C277.564 13.3933 276.882 13.144 276.061 13.144C275.283 13.144 274.631 13.3933 274.103 13.892C273.575 14.376 273.259 15.0433 273.157 15.894H278.965ZM287.483 12.968C287.879 12.2347 288.392 11.6627 289.023 11.252C289.668 10.8413 290.401 10.636 291.223 10.636V13.87H290.409C289.441 13.87 288.707 14.0973 288.209 14.552C287.725 15.0067 287.483 15.7987 287.483 16.928V23H284.403V10.812H287.483V12.968ZM296.773 19.612L294.045 26.168H292.043L293.517 19.612H296.773ZM305.429 19.502C306.852 18.314 307.967 17.3387 308.773 16.576C309.595 15.8133 310.277 15.0213 310.819 14.2C311.377 13.3787 311.655 12.5867 311.655 11.824C311.655 11.0907 311.479 10.526 311.127 10.13C310.79 9.71933 310.255 9.514 309.521 9.514C308.788 9.514 308.231 9.756 307.849 10.24C307.468 10.724 307.263 11.3987 307.233 12.264H304.241C304.3 10.504 304.821 9.16933 305.803 8.26C306.801 7.35067 308.062 6.896 309.587 6.896C310.702 6.896 311.648 7.10133 312.425 7.512C313.203 7.92267 313.782 8.48733 314.163 9.206C314.559 9.91 314.757 10.7167 314.757 11.626C314.757 12.726 314.449 13.782 313.833 14.794C313.232 15.806 312.535 16.6933 311.743 17.456C310.966 18.2187 309.932 19.1427 308.641 20.228H315.131V22.78H304.263V20.492L305.429 19.502ZM323.012 7.006C319.052 7.006 317.072 9.66067 317.072 14.97C317.072 20.294 319.052 22.956 323.012 22.956C326.972 22.956 328.952 20.294 328.952 14.97C328.952 9.66067 326.972 7.006 323.012 7.006ZM323.012 9.866C323.834 9.866 324.45 10.0933 324.86 10.548C325.286 11.0027 325.564 11.5967 325.696 12.33C325.843 13.0487 325.916 13.9287 325.916 14.97C325.916 16.0113 325.843 16.8987 325.696 17.632C325.564 18.3653 325.286 18.9593 324.86 19.414C324.45 19.8687 323.834 20.096 323.012 20.096C322.191 20.096 321.568 19.8687 321.142 19.414C320.732 18.9593 320.453 18.3653 320.306 17.632C320.174 16.8987 320.108 16.0113 320.108 14.97C320.108 13.9287 320.174 13.0487 320.306 12.33C320.453 11.5967 320.732 11.0027 321.142 10.548C321.568 10.0933 322.191 9.866 323.012 9.866ZM330.921 10.24V7.38H336.223V23H333.055V10.24H330.921ZM341.95 14.332C340.483 13.5987 339.75 12.418 339.75 10.79C339.75 10.0127 339.948 9.294 340.344 8.634C340.754 7.974 341.363 7.446 342.17 7.05C342.991 6.63933 343.988 6.434 345.162 6.434C346.335 6.434 347.325 6.63933 348.132 7.05C348.953 7.446 349.562 7.974 349.958 8.634C350.368 9.294 350.574 10.0127 350.574 10.79C350.574 11.5967 350.376 12.308 349.98 12.924C349.584 13.5253 349.056 13.9947 348.396 14.332C349.202 14.684 349.833 15.2047 350.288 15.894C350.742 16.5833 350.97 17.4047 350.97 18.358C350.97 19.3847 350.713 20.2793 350.2 21.042C349.701 21.79 349.012 22.362 348.132 22.758C347.252 23.154 346.262 23.352 345.162 23.352C344.062 23.352 343.072 23.154 342.192 22.758C341.312 22.362 340.622 21.79 340.124 21.042C339.625 20.2793 339.376 19.3847 339.376 18.358C339.376 17.39 339.603 16.5613 340.058 15.872C340.512 15.1827 341.143 14.6693 341.95 14.332ZM345.162 8.986C344.428 8.986 343.842 9.184 343.402 9.58C342.976 9.976 342.764 10.5333 342.764 11.252C342.764 11.912 342.984 12.4473 343.424 12.858C343.878 13.254 344.458 13.452 345.162 13.452C345.866 13.452 346.445 13.2467 346.9 12.836C347.354 12.4253 347.582 11.89 347.582 11.23C347.582 10.5113 347.362 9.96133 346.922 9.58C346.496 9.184 345.91 8.986 345.162 8.986ZM345.162 15.674C344.326 15.674 343.644 15.894 343.116 16.334C342.602 16.774 342.346 17.4047 342.346 18.226C342.346 18.9887 342.595 19.612 343.094 20.096C343.607 20.5653 344.296 20.8 345.162 20.8C346.027 20.8 346.709 20.5653 347.208 20.096C347.706 19.612 347.956 18.9887 347.956 18.226C347.956 17.4193 347.699 16.796 347.186 16.356C346.687 15.9013 346.012 15.674 345.162 15.674Z" transform="translate(198.064 44.9147)" fill="white"/>
<path d="M146.468 73.1943C146.468 113.618 113.68 146.389 73.2339 146.389C32.7879 146.389 0 113.618 0 73.1943C0 32.7702 32.7879 0 73.2339 0C113.68 0 146.468 32.7702 146.468 73.1943Z" fill="#E67672"/>
<path d="M33.2881 16.6351C33.2881 25.8224 25.8363 33.2701 16.6441 33.2701C7.4518 33.2701 0 25.8224 0 16.6351C0 7.44777 7.4518 0 16.6441 0C25.8363 0 33.2881 7.44777 33.2881 16.6351Z" transform="translate(56.5898 56.5593)" fill="white"/>
<path d="M146.468 73.1943C146.468 113.618 113.68 146.389 73.2339 146.389C32.7879 146.389 0 113.618 0 73.1943C0 32.7702 32.7879 0 73.2339 0C113.68 0 146.468 32.7702 146.468 73.1943Z" transform="translate(0 435)" fill="#E67672"/>
<path d="M33.2881 16.6351C33.2881 25.8224 25.8363 33.2701 16.6441 33.2701C7.4518 33.2701 0 25.8224 0 16.6351C0 7.44777 7.4518 0 16.6441 0C25.8363 0 33.2881 7.44777 33.2881 16.6351Z" transform="translate(56.5898 491.559)" fill="white"/>
<path d="M2.48047 32.9219L12.7148 22.043C13.6003 21.1836 14.2839 20.3242 14.7656 19.4648C15.2474 18.6055 15.4883 17.7331 15.4883 16.8477C15.4883 16.4701 15.4102 16.099 15.2539 15.7344C15.0977 15.3568 14.8698 15.0247 14.5703 14.7383C14.2839 14.4388 13.9258 14.2044 13.4961 14.0352C13.0794 13.8529 12.6042 13.7617 12.0703 13.7617C11.4323 13.7617 10.8724 13.8659 10.3906 14.0742C9.92188 14.2695 9.52474 14.543 9.19922 14.8945C8.88672 15.2461 8.64583 15.6562 8.47656 16.125C8.30729 16.5938 8.21615 17.0885 8.20312 17.6094H2.32422C2.32422 16.0729 2.57812 14.7057 3.08594 13.5078C3.59375 12.2969 4.29036 11.2812 5.17578 10.4609C6.07422 9.6276 7.1224 8.99609 8.32031 8.56641C9.51823 8.13672 10.8008 7.92188 12.168 7.92188C13.457 7.92188 14.681 8.11719 15.8398 8.50781C17.0117 8.89844 18.0404 9.47135 18.9258 10.2266C19.8242 10.9818 20.5339 11.9128 21.0547 13.0195C21.5755 14.1263 21.8359 15.4023 21.8359 16.8477C21.8359 18.0065 21.5951 19.0807 21.1133 20.0703C20.6445 21.0469 20.0065 21.9844 19.1992 22.8828L10.7617 32.0039H21.7969V38H2.48047V32.9219ZM36.1328 38.2734C34.0495 38.2734 32.2786 37.8893 30.8203 37.1211C29.362 36.3529 28.1706 35.2982 27.2461 33.957C26.3346 32.6029 25.6641 31.0143 25.2344 29.1914C24.8177 27.3555 24.6094 25.3828 24.6094 23.2734C24.6094 21.1901 24.8112 19.2305 25.2148 17.3945C25.6185 15.5456 26.276 13.931 27.1875 12.5508C28.099 11.1576 29.2904 10.0573 30.7617 9.25C32.2331 8.44271 34.0365 8.03906 36.1719 8.03906C38.2812 8.03906 40.0651 8.4362 41.5234 9.23047C42.9948 10.0247 44.1862 11.1055 45.0977 12.4727C46.0091 13.8398 46.6667 15.4414 47.0703 17.2773C47.487 19.1003 47.6953 21.0469 47.6953 23.1172C47.6953 25.2135 47.4805 27.1862 47.0508 29.0352C46.6341 30.8711 45.9635 32.4727 45.0391 33.8398C44.1276 35.207 42.9362 36.2878 41.4648 37.082C39.9935 37.8763 38.2161 38.2734 36.1328 38.2734ZM36.1328 32.2773C37.2917 32.2773 38.2096 32.0495 38.8867 31.5938C39.5768 31.125 40.1042 30.487 40.4688 29.6797C40.8333 28.8594 41.0677 27.8893 41.1719 26.7695C41.276 25.6497 41.3281 24.4323 41.3281 23.1172C41.3281 21.8281 41.276 20.6302 41.1719 19.5234C41.0677 18.4036 40.8333 17.4336 40.4688 16.6133C40.1172 15.7799 39.5964 15.1289 38.9062 14.6602C38.2292 14.1914 37.3177 13.957 36.1719 13.957C35.013 13.957 34.0885 14.1914 33.3984 14.6602C32.7083 15.1289 32.181 15.7799 31.8164 16.6133C31.4518 17.4336 31.2109 18.4036 31.0938 19.5234C30.9896 20.6302 30.9375 21.8281 30.9375 23.1172C30.9375 24.4323 30.9896 25.6497 31.0938 26.7695C31.2109 27.8893 31.4453 28.8594 31.7969 29.6797C32.1615 30.487 32.6823 31.125 33.3594 31.5938C34.0495 32.0495 34.974 32.2773 36.1328 32.2773ZM50.5664 32.6484H53.6719V17.1992L49.1211 19.9141V13.1172L57.2852 8.3125L60.1172 8.35156V32.6484H63.2422V38H50.5664V32.6484ZM70.2148 38.0391L76.2109 27.4922C75.8594 27.5182 75.5208 27.5117 75.1953 27.4727C74.8698 27.4336 74.5573 27.3815 74.2578 27.3164C73.151 27.1081 72.1159 26.7305 71.1523 26.1836C70.1888 25.6237 69.349 24.9401 68.6328 24.1328C67.9167 23.3125 67.3503 22.388 66.9336 21.3594C66.5299 20.3307 66.3281 19.237 66.3281 18.0781C66.3281 16.6589 66.5951 15.3438 67.1289 14.1328C67.6758 12.9219 68.4115 11.8737 69.3359 10.9883C70.2604 10.1029 71.3477 9.41276 72.5977 8.91797C73.8477 8.41016 75.1758 8.15625 76.582 8.15625C77.9622 8.15625 79.2708 8.41016 80.5078 8.91797C81.7448 9.41276 82.8255 10.0964 83.75 10.9688C84.6875 11.8411 85.4232 12.8698 85.957 14.0547C86.5039 15.2396 86.7773 16.5156 86.7773 17.8828C86.7773 18.5339 86.7122 19.1589 86.582 19.7578C86.4518 20.3438 86.2695 20.9167 86.0352 21.4766C85.8138 22.0365 85.5599 22.5898 85.2734 23.1367C84.987 23.6836 84.6875 24.237 84.375 24.7969L77.0508 38.0391H70.2148ZM76.6992 21.9648C77.4544 21.9648 78.1445 21.8346 78.7695 21.5742C79.3945 21.3008 79.9154 20.8971 80.332 20.3633C80.5143 20.0247 80.6641 19.6602 80.7812 19.2695C80.9115 18.8659 80.9766 18.4297 80.9766 17.9609C80.9766 17.5182 80.8854 17.056 80.7031 16.5742C80.5339 16.0924 80.2669 15.6497 79.9023 15.2461C79.5508 14.8424 79.0951 14.5169 78.5352 14.2695C77.9883 14.0091 77.3372 13.8789 76.582 13.8789C76.0352 13.8789 75.4948 13.9701 74.9609 14.1523C74.4401 14.3346 73.9648 14.6016 73.5352 14.9531C73.1185 15.2917 72.7799 15.7148 72.5195 16.2227C72.2591 16.7174 72.1289 17.2839 72.1289 17.9219C72.1289 18.5339 72.2461 19.0872 72.4805 19.582C72.7279 20.0768 73.0534 20.5 73.457 20.8516C73.8737 21.2031 74.362 21.4766 74.9219 21.6719C75.4818 21.8672 76.0742 21.9648 76.6992 21.9648ZM118.379 38.5273C117.038 38.5273 115.755 38.3451 114.531 37.9805C113.307 37.6159 112.161 37.1016 111.094 36.4375C110.039 35.7734 109.076 34.9792 108.203 34.0547C107.344 33.1172 106.608 32.082 105.996 30.9492C105.384 29.8034 104.909 28.5794 104.57 27.2773C104.232 25.9753 104.062 24.6146 104.062 23.1953C104.062 21.776 104.232 20.4154 104.57 19.1133C104.909 17.7982 105.384 16.5742 105.996 15.4414C106.608 14.2956 107.344 13.2604 108.203 12.3359C109.076 11.3984 110.039 10.5977 111.094 9.93359C112.161 9.26953 113.307 8.75521 114.531 8.39062C115.755 8.02604 117.038 7.84375 118.379 7.84375C119.72 7.84375 121.003 8.02604 122.227 8.39062C123.464 8.75521 124.609 9.26953 125.664 9.93359C126.732 10.5977 127.695 11.3984 128.555 12.3359C129.427 13.2604 130.169 14.2956 130.781 15.4414C131.406 16.5742 131.888 17.7982 132.227 19.1133C132.565 20.4154 132.734 21.776 132.734 23.1953C132.734 24.6016 132.565 25.9622 132.227 27.2773C131.888 28.5794 131.406 29.8034 130.781 30.9492C130.169 32.082 129.427 33.1172 128.555 34.0547C127.695 34.9792 126.732 35.7734 125.664 36.4375C124.609 37.1016 123.464 37.6159 122.227 37.9805C121.003 38.3451 119.72 38.5273 118.379 38.5273ZM118.379 32.3945C119.512 32.3945 120.547 32.1536 121.484 31.6719C122.435 31.1771 123.249 30.513 123.926 29.6797C124.603 28.8333 125.124 27.8568 125.488 26.75C125.866 25.6302 126.055 24.4453 126.055 23.1953C126.055 21.9323 125.866 20.7409 125.488 19.6211C125.111 18.5013 124.577 17.5247 123.887 16.6914C123.21 15.8451 122.402 15.181 121.465 14.6992C120.527 14.2044 119.499 13.957 118.379 13.957C117.259 13.957 116.23 14.2044 115.293 14.6992C114.355 15.181 113.548 15.8451 112.871 16.6914C112.194 17.5247 111.66 18.5013 111.27 19.6211C110.892 20.7409 110.703 21.9323 110.703 23.1953C110.703 24.4453 110.892 25.6302 111.27 26.75C111.66 27.8568 112.194 28.8333 112.871 29.6797C113.548 30.513 114.355 31.1771 115.293 31.6719C116.23 32.1536 117.259 32.3945 118.379 32.3945ZM135.566 7.60938H144.688V25.1289H148.105L149.512 23.1172V17.7656H159.98V23.1172H156.348L152.578 27.4727L156.426 32.1211H159.785V38H154.297L147.734 29.3281H144.688V32.6484H146.758V38H135.566V32.6484H138.691V12.9609H135.566V7.60938ZM164.141 20.2852C164.141 19.8034 164.225 19.3542 164.395 18.9375C164.577 18.5078 164.824 18.1367 165.137 17.8242C165.449 17.5117 165.814 17.2643 166.23 17.082C166.66 16.8997 167.122 16.8086 167.617 16.8086C168.086 16.8086 168.529 16.8997 168.945 17.082C169.362 17.2643 169.727 17.5117 170.039 17.8242C170.352 18.1367 170.599 18.5078 170.781 18.9375C170.964 19.3542 171.055 19.8034 171.055 20.2852C171.055 20.7669 170.964 21.2227 170.781 21.6523C170.599 22.069 170.352 22.4336 170.039 22.7461C169.727 23.0586 169.362 23.306 168.945 23.4883C168.529 23.6706 168.086 23.7617 167.617 23.7617C167.122 23.7617 166.66 23.6706 166.23 23.4883C165.814 23.306 165.449 23.0586 165.137 22.7461C164.824 22.4336 164.577 22.069 164.395 21.6523C164.225 21.2227 164.141 20.7669 164.141 20.2852ZM164.141 35.168C164.141 34.6862 164.225 34.237 164.395 33.8203C164.577 33.3906 164.824 33.0195 165.137 32.707C165.449 32.3815 165.814 32.1276 166.23 31.9453C166.66 31.763 167.122 31.6719 167.617 31.6719C168.086 31.6719 168.529 31.763 168.945 31.9453C169.362 32.1276 169.727 32.3815 170.039 32.707C170.352 33.0195 170.599 33.3906 170.781 33.8203C170.964 34.237 171.055 34.6862 171.055 35.168C171.055 35.6497 170.964 36.1055 170.781 36.5352C170.599 36.9518 170.352 37.3164 170.039 37.6289C169.727 37.9414 169.362 38.1888 168.945 38.3711C168.529 38.5534 168.086 38.6445 167.617 38.6445C167.122 38.6445 166.66 38.5534 166.23 38.3711C165.814 38.1888 165.449 37.9414 165.137 37.6289C164.824 37.3164 164.577 36.9518 164.395 36.5352C164.225 36.1055 164.141 35.6497 164.141 35.168ZM175.488 8.39062H199.043V18.4883H192.676V14.2891H185.078V20.1289H190.957V25.793H185.078V32.6484H192.676V27.3945H199.043V38H175.488V32.6484H178.594V14.2891H175.488V8.39062ZM216.953 24.7578C216.393 24.0547 215.768 23.5273 215.078 23.1758C214.388 22.8112 213.574 22.6549 212.637 22.707C211.882 22.6549 211.191 22.7591 210.566 23.0195C209.954 23.2799 209.421 23.6445 208.965 24.1133C208.522 24.582 208.177 25.1419 207.93 25.793C207.682 26.431 207.559 27.1536 207.559 27.9609C207.559 28.6771 207.689 29.3542 207.949 29.9922C208.21 30.6302 208.561 31.1836 209.004 31.6523C209.46 32.1081 209.993 32.4661 210.605 32.7266C211.23 32.987 211.908 33.1432 212.637 33.1953C213.249 33.1432 213.802 33.0195 214.297 32.8242C214.805 32.6159 215.254 32.3555 215.645 32.043C216.035 31.7174 216.367 31.3594 216.641 30.9688C216.927 30.5651 217.148 30.1875 217.305 29.8359L222.676 31.3203C222.454 32.1016 222.07 32.9154 221.523 33.7617C220.99 34.6081 220.286 35.3828 219.414 36.0859C218.555 36.776 217.526 37.349 216.328 37.8047C215.143 38.2604 213.789 38.4883 212.266 38.4883C210.716 38.4883 209.29 38.2083 207.988 37.6484C206.686 37.0755 205.566 36.3008 204.629 35.3242C203.691 34.3477 202.956 33.2018 202.422 31.8867C201.901 30.5716 201.641 29.1589 201.641 27.6484C201.641 26.151 201.908 24.7643 202.441 23.4883C202.988 22.1992 203.737 21.0794 204.688 20.1289C205.638 19.1654 206.764 18.4167 208.066 17.8828C209.382 17.349 210.807 17.1081 212.344 17.1602C213.438 17.1081 214.499 17.2318 215.527 17.5312C216.556 17.8307 217.533 18.2799 218.457 18.8789H222.344V24.7578H216.953ZM224.688 27.8047C224.688 26.3333 224.954 24.9531 225.488 23.6641C226.022 22.375 226.764 21.2487 227.715 20.2852C228.665 19.3216 229.798 18.5599 231.113 18C232.428 17.4401 233.874 17.1602 235.449 17.1602C237.025 17.1602 238.47 17.4401 239.785 18C241.113 18.5599 242.253 19.3216 243.203 20.2852C244.154 21.2487 244.889 22.375 245.41 23.6641C245.944 24.9531 246.211 26.3333 246.211 27.8047C246.211 29.276 245.951 30.6628 245.43 31.9648C244.922 33.2539 244.193 34.3867 243.242 35.3633C242.305 36.3268 241.172 37.0885 239.844 37.6484C238.529 38.2083 237.064 38.4883 235.449 38.4883C233.822 38.4883 232.344 38.2083 231.016 37.6484C229.701 37.0885 228.574 36.3268 227.637 35.3633C226.699 34.3997 225.97 33.2734 225.449 31.9844C224.941 30.6823 224.688 29.2891 224.688 27.8047ZM230.527 27.8047C230.527 28.5729 230.658 29.2826 230.918 29.9336C231.178 30.5716 231.53 31.125 231.973 31.5938C232.428 32.0625 232.949 32.4271 233.535 32.6875C234.134 32.9479 234.772 33.0781 235.449 33.0781C236.139 33.0781 236.777 32.9544 237.363 32.707C237.962 32.4466 238.477 32.082 238.906 31.6133C239.349 31.1445 239.694 30.5911 239.941 29.9531C240.189 29.3021 240.312 28.5859 240.312 27.8047C240.312 26.9974 240.189 26.2682 239.941 25.6172C239.694 24.9661 239.349 24.4128 238.906 23.957C238.477 23.5013 237.962 23.1562 237.363 22.9219C236.777 22.6745 236.139 22.5573 235.449 22.5703C234.772 22.5573 234.134 22.6745 233.535 22.9219C232.949 23.1562 232.428 23.5013 231.973 23.957C231.53 24.4128 231.178 24.9661 230.918 25.6172C230.658 26.2682 230.527 26.9974 230.527 27.8047ZM262.09 23.957C262.09 23.6445 261.986 23.3451 261.777 23.0586C261.582 22.7721 261.289 22.5247 260.898 22.3164C260.508 22.0951 260.026 21.9193 259.453 21.7891C258.893 21.6589 258.255 21.5938 257.539 21.5938C257.266 21.5938 256.973 21.6198 256.66 21.6719C256.348 21.7109 256.055 21.7891 255.781 21.9062C255.521 22.0234 255.299 22.1862 255.117 22.3945C254.948 22.5898 254.863 22.8438 254.863 23.1562C254.863 23.3125 254.883 23.4622 254.922 23.6055C254.974 23.7487 255.065 23.8854 255.195 24.0156C255.326 24.1458 255.501 24.2695 255.723 24.3867C255.957 24.4909 256.257 24.5755 256.621 24.6406L260.293 25.3633C261.621 25.6237 262.734 25.9492 263.633 26.3398C264.531 26.7305 265.254 27.1862 265.801 27.707C266.348 28.2279 266.738 28.8073 266.973 29.4453C267.22 30.0833 267.344 30.7734 267.344 31.5156C267.344 32.6745 267.07 33.6901 266.523 34.5625C265.99 35.4349 265.28 36.1641 264.395 36.75C263.522 37.3229 262.533 37.7526 261.426 38.0391C260.332 38.3385 259.225 38.4883 258.105 38.4883C257.376 38.4883 256.712 38.4427 256.113 38.3516C255.527 38.2604 254.993 38.1367 254.512 37.9805C254.043 37.8242 253.62 37.6419 253.242 37.4336C252.878 37.2122 252.539 36.9714 252.227 36.7109H248.691V31.2812H254.219V31.3984C254.232 31.776 254.349 32.1081 254.57 32.3945C254.792 32.668 255.078 32.9023 255.43 33.0977C255.794 33.293 256.204 33.4427 256.66 33.5469C257.116 33.638 257.598 33.6836 258.105 33.6836C259.277 33.6836 260.13 33.5339 260.664 33.2344C261.198 32.9219 261.465 32.5247 261.465 32.043C261.465 31.6654 261.335 31.3464 261.074 31.0859C260.814 30.8125 260.352 30.5977 259.688 30.4414L255.938 29.6406C253.581 29.1849 251.803 28.4297 250.605 27.375C249.408 26.3073 248.809 24.9401 248.809 23.2734C248.809 22.2969 249.036 21.4115 249.492 20.6172C249.948 19.8099 250.566 19.1263 251.348 18.5664C252.129 17.9935 253.04 17.5508 254.082 17.2383C255.137 16.9258 256.263 16.7695 257.461 16.7695C258.281 16.7695 259.01 16.8216 259.648 16.9258C260.286 17.0169 260.859 17.1406 261.367 17.2969C261.875 17.4531 262.318 17.6419 262.695 17.8633C263.086 18.0716 263.431 18.293 263.73 18.5273H267.129V23.957H262.09ZM270.137 17.7656H280.059V23.1172H278.496L281.406 30.6953L284.395 23.1172H282.656V17.7656H292.578V23.1172H290.371L282.539 41.8477H286.016V47.1992H273.457V41.8477H276.992L278.516 38L272.188 23.1172H270.137V17.7656ZM307.871 23.957C307.871 23.6445 307.767 23.3451 307.559 23.0586C307.363 22.7721 307.07 22.5247 306.68 22.3164C306.289 22.0951 305.807 21.9193 305.234 21.7891C304.674 21.6589 304.036 21.5938 303.32 21.5938C303.047 21.5938 302.754 21.6198 302.441 21.6719C302.129 21.7109 301.836 21.7891 301.562 21.9062C301.302 22.0234 301.081 22.1862 300.898 22.3945C300.729 22.5898 300.645 22.8438 300.645 23.1562C300.645 23.3125 300.664 23.4622 300.703 23.6055C300.755 23.7487 300.846 23.8854 300.977 24.0156C301.107 24.1458 301.283 24.2695 301.504 24.3867C301.738 24.4909 302.038 24.5755 302.402 24.6406L306.074 25.3633C307.402 25.6237 308.516 25.9492 309.414 26.3398C310.312 26.7305 311.035 27.1862 311.582 27.707C312.129 28.2279 312.52 28.8073 312.754 29.4453C313.001 30.0833 313.125 30.7734 313.125 31.5156C313.125 32.6745 312.852 33.6901 312.305 34.5625C311.771 35.4349 311.061 36.1641 310.176 36.75C309.303 37.3229 308.314 37.7526 307.207 38.0391C306.113 38.3385 305.007 38.4883 303.887 38.4883C303.158 38.4883 302.493 38.4427 301.895 38.3516C301.309 38.2604 300.775 38.1367 300.293 37.9805C299.824 37.8242 299.401 37.6419 299.023 37.4336C298.659 37.2122 298.32 36.9714 298.008 36.7109H294.473V31.2812H300V31.3984C300.013 31.776 300.13 32.1081 300.352 32.3945C300.573 32.668 300.859 32.9023 301.211 33.0977C301.576 33.293 301.986 33.4427 302.441 33.5469C302.897 33.638 303.379 33.6836 303.887 33.6836C305.059 33.6836 305.911 33.5339 306.445 33.2344C306.979 32.9219 307.246 32.5247 307.246 32.043C307.246 31.6654 307.116 31.3464 306.855 31.0859C306.595 30.8125 306.133 30.5977 305.469 30.4414L301.719 29.6406C299.362 29.1849 297.585 28.4297 296.387 27.375C295.189 26.3073 294.59 24.9401 294.59 23.2734C294.59 22.2969 294.818 21.4115 295.273 20.6172C295.729 19.8099 296.348 19.1263 297.129 18.5664C297.91 17.9935 298.822 17.5508 299.863 17.2383C300.918 16.9258 302.044 16.7695 303.242 16.7695C304.062 16.7695 304.792 16.8216 305.43 16.9258C306.068 17.0169 306.641 17.1406 307.148 17.2969C307.656 17.4531 308.099 17.6419 308.477 17.8633C308.867 18.0716 309.212 18.293 309.512 18.5273H312.91V23.957H307.871ZM324.121 17.7656H328.164V22.8828H324.082L324.043 31.4375C324.043 31.9323 324.082 32.3359 324.16 32.6484C324.238 32.9479 324.349 33.1888 324.492 33.3711C324.648 33.5534 324.831 33.6771 325.039 33.7422C325.247 33.8073 325.488 33.8398 325.762 33.8398C326.257 33.8398 326.693 33.7943 327.07 33.7031C327.448 33.599 327.826 33.4818 328.203 33.3516L329.043 37.1211C328.379 37.5378 327.637 37.8698 326.816 38.1172C326.009 38.3646 325.046 38.4883 323.926 38.4883C323.132 38.4883 322.37 38.3516 321.641 38.0781C320.924 37.8047 320.293 37.3945 319.746 36.8477C319.199 36.2878 318.763 35.5911 318.438 34.7578C318.112 33.9245 317.956 32.9544 317.969 31.8477L318.027 22.8828H315.117V17.7656H318.047L318.086 12.9219L324.16 10.0312L324.121 17.7656ZM337.363 29.1523L337.422 29.7578C337.565 30.3438 337.806 30.8581 338.145 31.3008C338.496 31.7435 338.906 32.1146 339.375 32.4141C339.844 32.7135 340.365 32.9414 340.938 33.0977C341.51 33.2409 342.09 33.3125 342.676 33.3125C343.262 33.3125 343.815 33.2799 344.336 33.2148C344.87 33.1367 345.384 33.0391 345.879 32.9219C346.374 32.7917 346.855 32.6484 347.324 32.4922C347.793 32.3229 348.268 32.1471 348.75 31.9648L350.898 35.9688C350.156 36.4245 349.473 36.8151 348.848 37.1406C348.236 37.4531 347.617 37.7135 346.992 37.9219C346.367 38.1302 345.703 38.2799 345 38.3711C344.297 38.4753 343.477 38.5273 342.539 38.5273C340.781 38.5273 339.219 38.2409 337.852 37.668C336.484 37.082 335.332 36.2943 334.395 35.3047C333.47 34.3151 332.76 33.1562 332.266 31.8281C331.784 30.5 331.543 29.0938 331.543 27.6094C331.543 26.125 331.797 24.7318 332.305 23.4297C332.826 22.1276 333.555 20.9948 334.492 20.0312C335.43 19.0547 336.549 18.2865 337.852 17.7266C339.154 17.1667 340.599 16.8867 342.188 16.8867C343.776 16.8867 345.182 17.1536 346.406 17.6875C347.643 18.2083 348.685 18.9375 349.531 19.875C350.378 20.7995 351.029 21.8932 351.484 23.1562C351.94 24.4062 352.188 25.7539 352.227 27.1992C352.266 27.5247 352.285 27.8503 352.285 28.1758C352.298 28.4883 352.292 28.8138 352.266 29.1523H337.363ZM342.031 21.7695C341.302 21.7695 340.677 21.8607 340.156 22.043C339.648 22.2122 339.219 22.4531 338.867 22.7656C338.516 23.0651 338.236 23.4102 338.027 23.8008C337.819 24.1914 337.656 24.6016 337.539 25.0312H345.996C345.905 24.5885 345.775 24.1719 345.605 23.7812C345.436 23.3906 345.202 23.0456 344.902 22.7461C344.603 22.4466 344.219 22.2122 343.75 22.043C343.294 21.8607 342.721 21.7695 342.031 21.7695ZM355.312 17.7656H364.57V19.5234C365.404 18.8594 366.341 18.332 367.383 17.9414C368.424 17.5508 369.499 17.3555 370.605 17.3555C372.142 17.3555 373.457 17.6289 374.551 18.1758C375.658 18.7096 376.523 19.5299 377.148 20.6367C377.578 20.1549 378.06 19.7188 378.594 19.3281C379.141 18.9245 379.72 18.5794 380.332 18.293C380.944 17.9935 381.582 17.7656 382.246 17.6094C382.923 17.4401 383.613 17.3555 384.316 17.3555C386.79 17.3555 388.691 18.0391 390.02 19.4062C391.348 20.7734 392.012 22.7721 392.012 25.4023V32.6484H394.883V38H385.645V26.3984C385.645 25.2526 385.345 24.3542 384.746 23.7031C384.16 23.0521 383.34 22.7266 382.285 22.7266C381.556 22.7266 380.866 22.9023 380.215 23.2539C379.577 23.5924 378.939 24.1849 378.301 25.0312C378.314 25.1745 378.32 25.3242 378.32 25.4805C378.32 25.6237 378.32 25.7734 378.32 25.9297V32.6484H381.25V38H372.012V26.3594C372.012 25.8125 371.927 25.3177 371.758 24.875C371.589 24.4323 371.354 24.0547 371.055 23.7422C370.755 23.4297 370.397 23.1888 369.98 23.0195C369.577 22.8372 369.128 22.7396 368.633 22.7266C367.982 22.7135 367.305 22.8568 366.602 23.1562C365.911 23.4557 365.247 24.0091 364.609 24.8164V32.6484H367.852V38H355.273V32.6484H358.281V23.1172H355.312V17.7656Z" transform="translate(198 458)" fill="#21314E"/>
<path d="M32.9688 58.3906H45.6445V63.7617H42.9688L36.1523 88H27.7148L23.2422 69.5234L18.6719 88H10.3125L3.37891 63.7617H0.390625V58.3906H13.0859V63.7617H10L14.3555 79.7188L19.6094 58.4492H26.875L32.0312 79.7188L36.4062 63.7617H32.9688V58.3906ZM47.4609 77.8047C47.4609 76.3333 47.7279 74.9531 48.2617 73.6641C48.7956 72.375 49.5378 71.2487 50.4883 70.2852C51.4388 69.3216 52.5716 68.5599 53.8867 68C55.2018 67.4401 56.6471 67.1602 58.2227 67.1602C59.7982 67.1602 61.2435 67.4401 62.5586 68C63.8867 68.5599 65.026 69.3216 65.9766 70.2852C66.9271 71.2487 67.6628 72.375 68.1836 73.6641C68.7174 74.9531 68.9844 76.3333 68.9844 77.8047C68.9844 79.276 68.724 80.6628 68.2031 81.9648C67.6953 83.2539 66.9661 84.3867 66.0156 85.3633C65.0781 86.3268 63.9453 87.0885 62.6172 87.6484C61.3021 88.2083 59.8372 88.4883 58.2227 88.4883C56.5951 88.4883 55.1172 88.2083 53.7891 87.6484C52.474 87.0885 51.3477 86.3268 50.4102 85.3633C49.4727 84.3997 48.7435 83.2734 48.2227 81.9844C47.7148 80.6823 47.4609 79.2891 47.4609 77.8047ZM53.3008 77.8047C53.3008 78.5729 53.431 79.2826 53.6914 79.9336C53.9518 80.5716 54.3034 81.125 54.7461 81.5938C55.2018 82.0625 55.7227 82.4271 56.3086 82.6875C56.9076 82.9479 57.5456 83.0781 58.2227 83.0781C58.9128 83.0781 59.5508 82.9544 60.1367 82.707C60.7357 82.4466 61.25 82.082 61.6797 81.6133C62.1224 81.1445 62.4674 80.5911 62.7148 79.9531C62.9622 79.3021 63.0859 78.5859 63.0859 77.8047C63.0859 76.9974 62.9622 76.2682 62.7148 75.6172C62.4674 74.9661 62.1224 74.4128 61.6797 73.957C61.25 73.5013 60.7357 73.1562 60.1367 72.9219C59.5508 72.6745 58.9128 72.5573 58.2227 72.5703C57.5456 72.5573 56.9076 72.6745 56.3086 72.9219C55.7227 73.1562 55.2018 73.5013 54.7461 73.957C54.3034 74.4128 53.9518 74.9661 53.6914 75.6172C53.431 76.2682 53.3008 76.9974 53.3008 77.8047ZM90.3125 75.1289H84.8242V73.0391C84.2904 73.0391 83.8021 73.0781 83.3594 73.1562C82.9167 73.2214 82.526 73.3385 82.1875 73.5078C81.862 73.6771 81.582 73.9115 81.3477 74.2109C81.1263 74.5104 80.9701 74.8815 80.8789 75.3242V82.6484H85V88H71.7969V82.6484H74.8242V73.1172H71.8359V67.7656H80.8398V69.1914C81.4128 68.7357 82.0573 68.3841 82.7734 68.1367C83.4896 67.8893 84.2708 67.7656 85.1172 67.7656C85.9766 67.7656 86.862 67.7721 87.7734 67.7852C88.6849 67.7982 89.5312 67.8047 90.3125 67.8047V75.1289ZM93.2227 57.6094H102.344V82.6484H105.469V88H93.2227V82.6484H96.3477V62.9609H93.2227V57.6094ZM120.84 57.6094H129.688V82.6484H133.633V88H123.672V87.2188C122.969 87.5833 122.246 87.8698 121.504 88.0781C120.775 88.2865 120.033 88.3906 119.277 88.3906C117.728 88.3906 116.302 88.1172 115 87.5703C113.711 87.0104 112.598 86.2487 111.66 85.2852C110.736 84.3216 110.013 83.1953 109.492 81.9062C108.971 80.6042 108.711 79.2109 108.711 77.7266C108.711 76.2422 108.965 74.862 109.473 73.5859C109.993 72.2969 110.71 71.1771 111.621 70.2266C112.546 69.276 113.646 68.5273 114.922 67.9805C116.211 67.4336 117.624 67.1602 119.16 67.1602C120.007 67.1602 120.801 67.2448 121.543 67.4141C122.285 67.5703 122.995 67.7982 123.672 68.0977V62.9609H120.84V57.6094ZM119.609 83C120.469 82.974 121.243 82.7526 121.934 82.3359C122.637 81.9193 123.216 81.3724 123.672 80.6953V74.7383C123.216 74.0482 122.624 73.5143 121.895 73.1367C121.178 72.7461 120.417 72.5573 119.609 72.5703C118.932 72.5573 118.294 72.6745 117.695 72.9219C117.109 73.1693 116.589 73.5208 116.133 73.9766C115.69 74.4323 115.339 74.9792 115.078 75.6172C114.818 76.2552 114.688 76.9779 114.688 77.7852C114.688 78.5794 114.818 79.3021 115.078 79.9531C115.339 80.5911 115.69 81.138 116.133 81.5938C116.589 82.0365 117.109 82.375 117.695 82.6094C118.294 82.8438 118.932 82.974 119.609 83ZM138.652 56.0859L144.609 58.1562L139.043 68.7227L135.039 67.1992L138.652 56.0859ZM159.512 73.957C159.512 73.6445 159.408 73.3451 159.199 73.0586C159.004 72.7721 158.711 72.5247 158.32 72.3164C157.93 72.0951 157.448 71.9193 156.875 71.7891C156.315 71.6589 155.677 71.5938 154.961 71.5938C154.688 71.5938 154.395 71.6198 154.082 71.6719C153.77 71.7109 153.477 71.7891 153.203 71.9062C152.943 72.0234 152.721 72.1862 152.539 72.3945C152.37 72.5898 152.285 72.8438 152.285 73.1562C152.285 73.3125 152.305 73.4622 152.344 73.6055C152.396 73.7487 152.487 73.8854 152.617 74.0156C152.747 74.1458 152.923 74.2695 153.145 74.3867C153.379 74.4909 153.678 74.5755 154.043 74.6406L157.715 75.3633C159.043 75.6237 160.156 75.9492 161.055 76.3398C161.953 76.7305 162.676 77.1862 163.223 77.707C163.77 78.2279 164.16 78.8073 164.395 79.4453C164.642 80.0833 164.766 80.7734 164.766 81.5156C164.766 82.6745 164.492 83.6901 163.945 84.5625C163.411 85.4349 162.702 86.1641 161.816 86.75C160.944 87.3229 159.954 87.7526 158.848 88.0391C157.754 88.3385 156.647 88.4883 155.527 88.4883C154.798 88.4883 154.134 88.4427 153.535 88.3516C152.949 88.2604 152.415 88.1367 151.934 87.9805C151.465 87.8242 151.042 87.6419 150.664 87.4336C150.299 87.2122 149.961 86.9714 149.648 86.7109H146.113V81.2812H151.641V81.3984C151.654 81.776 151.771 82.1081 151.992 82.3945C152.214 82.668 152.5 82.9023 152.852 83.0977C153.216 83.293 153.626 83.4427 154.082 83.5469C154.538 83.638 155.02 83.6836 155.527 83.6836C156.699 83.6836 157.552 83.5339 158.086 83.2344C158.62 82.9219 158.887 82.5247 158.887 82.043C158.887 81.6654 158.757 81.3464 158.496 81.0859C158.236 80.8125 157.773 80.5977 157.109 80.4414L153.359 79.6406C151.003 79.1849 149.225 78.4297 148.027 77.375C146.829 76.3073 146.23 74.9401 146.23 73.2734C146.23 72.2969 146.458 71.4115 146.914 70.6172C147.37 69.8099 147.988 69.1263 148.77 68.5664C149.551 67.9935 150.462 67.5508 151.504 67.2383C152.559 66.9258 153.685 66.7695 154.883 66.7695C155.703 66.7695 156.432 66.8216 157.07 66.9258C157.708 67.0169 158.281 67.1406 158.789 67.2969C159.297 67.4531 159.74 67.6419 160.117 67.8633C160.508 68.0716 160.853 68.293 161.152 68.5273H164.551V73.957H159.512ZM176.777 58.3906H199.688V68.4883H193.34V64.3281H186.328V70.5586H192.402V76.2422H186.328V82.6484H189.453V88H176.777V82.6484H179.844V64.3281H176.777V58.3906ZM213.691 86.9062C213.236 87.1927 212.819 87.4401 212.441 87.6484C212.064 87.8438 211.686 88 211.309 88.1172C210.931 88.2474 210.54 88.3385 210.137 88.3906C209.733 88.4557 209.29 88.4883 208.809 88.4883C207.598 88.4883 206.51 88.3255 205.547 88C204.596 87.6615 203.789 87.2057 203.125 86.6328C202.474 86.0469 201.973 85.3633 201.621 84.582C201.27 83.7878 201.094 82.9284 201.094 82.0039C201.094 81.0664 201.27 80.2005 201.621 79.4062C201.986 78.612 202.507 77.9349 203.184 77.375C203.861 76.8021 204.688 76.3594 205.664 76.0469C206.654 75.7214 207.78 75.5586 209.043 75.5586C209.967 75.5586 210.807 75.6107 211.562 75.7148C212.331 75.806 213.04 75.9232 213.691 76.0664V75.4414C213.691 74.9336 213.594 74.4974 213.398 74.1328C213.203 73.7552 212.93 73.4492 212.578 73.2148C212.227 72.9674 211.803 72.7917 211.309 72.6875C210.814 72.5703 210.273 72.5117 209.688 72.5117C208.464 72.5117 207.383 72.6354 206.445 72.8828C205.521 73.1172 204.629 73.4622 203.77 73.918L201.895 70.1289C203.223 69.2174 204.609 68.5208 206.055 68.0391C207.513 67.5573 209.056 67.3164 210.684 67.3164C211.947 67.3164 213.112 67.4596 214.18 67.7461C215.26 68.0195 216.185 68.4753 216.953 69.1133C217.721 69.7383 218.32 70.5586 218.75 71.5742C219.193 72.5898 219.414 73.8268 219.414 75.2852V82.6484H222.129V88H213.691V86.9062ZM209.238 83.8789C210.163 83.8789 211.003 83.7292 211.758 83.4297C212.513 83.1302 213.158 82.7656 213.691 82.3359V79.7578H209.004C208.704 79.7578 208.411 79.8034 208.125 79.8945C207.839 79.9857 207.578 80.1159 207.344 80.2852C207.122 80.4544 206.94 80.6628 206.797 80.9102C206.667 81.1576 206.602 81.444 206.602 81.7695C206.602 82.3685 206.816 82.8698 207.246 83.2734C207.689 83.6771 208.353 83.8789 209.238 83.8789ZM226.289 67.7656H235.547V69.5234C236.38 68.8594 237.318 68.332 238.359 67.9414C239.401 67.5508 240.475 67.3555 241.582 67.3555C243.118 67.3555 244.434 67.6289 245.527 68.1758C246.634 68.7096 247.5 69.5299 248.125 70.6367C248.555 70.1549 249.036 69.7188 249.57 69.3281C250.117 68.9245 250.697 68.5794 251.309 68.293C251.921 67.9935 252.559 67.7656 253.223 67.6094C253.9 67.4401 254.59 67.3555 255.293 67.3555C257.767 67.3555 259.668 68.0391 260.996 69.4062C262.324 70.7734 262.988 72.7721 262.988 75.4023V82.6484H265.859V88H256.621V76.3984C256.621 75.2526 256.322 74.3542 255.723 73.7031C255.137 73.0521 254.316 72.7266 253.262 72.7266C252.533 72.7266 251.842 72.9023 251.191 73.2539C250.553 73.5924 249.915 74.1849 249.277 75.0312C249.29 75.1745 249.297 75.3242 249.297 75.4805C249.297 75.6237 249.297 75.7734 249.297 75.9297V82.6484H252.227V88H242.988V76.3594C242.988 75.8125 242.904 75.3177 242.734 74.875C242.565 74.4323 242.331 74.0547 242.031 73.7422C241.732 73.4297 241.374 73.1888 240.957 73.0195C240.553 72.8372 240.104 72.7396 239.609 72.7266C238.958 72.7135 238.281 72.8568 237.578 73.1562C236.888 73.4557 236.224 74.0091 235.586 74.8164V82.6484H238.828V88H226.25V82.6484H229.258V73.1172H226.289V67.7656ZM273.613 79.1523L273.672 79.7578C273.815 80.3438 274.056 80.8581 274.395 81.3008C274.746 81.7435 275.156 82.1146 275.625 82.4141C276.094 82.7135 276.615 82.9414 277.188 83.0977C277.76 83.2409 278.34 83.3125 278.926 83.3125C279.512 83.3125 280.065 83.2799 280.586 83.2148C281.12 83.1367 281.634 83.0391 282.129 82.9219C282.624 82.7917 283.105 82.6484 283.574 82.4922C284.043 82.3229 284.518 82.1471 285 81.9648L287.148 85.9688C286.406 86.4245 285.723 86.8151 285.098 87.1406C284.486 87.4531 283.867 87.7135 283.242 87.9219C282.617 88.1302 281.953 88.2799 281.25 88.3711C280.547 88.4753 279.727 88.5273 278.789 88.5273C277.031 88.5273 275.469 88.2409 274.102 87.668C272.734 87.082 271.582 86.2943 270.645 85.3047C269.72 84.3151 269.01 83.1562 268.516 81.8281C268.034 80.5 267.793 79.0938 267.793 77.6094C267.793 76.125 268.047 74.7318 268.555 73.4297C269.076 72.1276 269.805 70.9948 270.742 70.0312C271.68 69.0547 272.799 68.2865 274.102 67.7266C275.404 67.1667 276.849 66.8867 278.438 66.8867C280.026 66.8867 281.432 67.1536 282.656 67.6875C283.893 68.2083 284.935 68.9375 285.781 69.875C286.628 70.7995 287.279 71.8932 287.734 73.1562C288.19 74.4062 288.438 75.7539 288.477 77.1992C288.516 77.5247 288.535 77.8503 288.535 78.1758C288.548 78.4883 288.542 78.8138 288.516 79.1523H273.613ZM278.281 71.7695C277.552 71.7695 276.927 71.8607 276.406 72.043C275.898 72.2122 275.469 72.4531 275.117 72.7656C274.766 73.0651 274.486 73.4102 274.277 73.8008C274.069 74.1914 273.906 74.6016 273.789 75.0312H282.246C282.155 74.5885 282.025 74.1719 281.855 73.7812C281.686 73.3906 281.452 73.0456 281.152 72.7461C280.853 72.4466 280.469 72.2122 280 72.043C279.544 71.8607 278.971 71.7695 278.281 71.7695ZM299.16 76.9258H316.211V82.5117H299.16V76.9258ZM299.16 68.5273H316.211V74.1133H299.16V68.5273ZM327.637 58.3906H341.309C342.832 58.3906 344.232 58.6315 345.508 59.1133C346.784 59.582 347.884 60.2201 348.809 61.0273C349.733 61.8346 350.456 62.7656 350.977 63.8203C351.497 64.875 351.758 65.9753 351.758 67.1211C351.758 68.5013 351.549 69.7969 351.133 71.0078C350.729 72.2057 350.098 73.2474 349.238 74.1328C348.379 75.0182 347.292 75.7214 345.977 76.2422C344.661 76.75 343.105 77.0039 341.309 77.0039H337.188V82.6484H339.902V88H327.637V82.6484H330.703V63.7617H327.637V58.3906ZM337.188 63.7617V71.7109H339.863C341.348 71.7109 342.526 71.3984 343.398 70.7734C344.271 70.1484 344.707 69.1589 344.707 67.8047C344.707 66.5417 344.297 65.5521 343.477 64.8359C342.656 64.1198 341.452 63.7617 339.863 63.7617H337.188ZM372.695 75.1289H367.207V73.0391C366.673 73.0391 366.185 73.0781 365.742 73.1562C365.299 73.2214 364.909 73.3385 364.57 73.5078C364.245 73.6771 363.965 73.9115 363.73 74.2109C363.509 74.5104 363.353 74.8815 363.262 75.3242V82.6484H367.383V88H354.18V82.6484H357.207V73.1172H354.219V67.7656H363.223V69.1914C363.796 68.7357 364.44 68.3841 365.156 68.1367C365.872 67.8893 366.654 67.7656 367.5 67.7656C368.359 67.7656 369.245 67.7721 370.156 67.7852C371.068 67.7982 371.914 67.8047 372.695 67.8047V75.1289ZM375.859 77.8047C375.859 76.3333 376.126 74.9531 376.66 73.6641C377.194 72.375 377.936 71.2487 378.887 70.2852C379.837 69.3216 380.97 68.5599 382.285 68C383.6 67.4401 385.046 67.1602 386.621 67.1602C388.197 67.1602 389.642 67.4401 390.957 68C392.285 68.5599 393.424 69.3216 394.375 70.2852C395.326 71.2487 396.061 72.375 396.582 73.6641C397.116 74.9531 397.383 76.3333 397.383 77.8047C397.383 79.276 397.122 80.6628 396.602 81.9648C396.094 83.2539 395.365 84.3867 394.414 85.3633C393.477 86.3268 392.344 87.0885 391.016 87.6484C389.701 88.2083 388.236 88.4883 386.621 88.4883C384.993 88.4883 383.516 88.2083 382.188 87.6484C380.872 87.0885 379.746 86.3268 378.809 85.3633C377.871 84.3997 377.142 83.2734 376.621 81.9844C376.113 80.6823 375.859 79.2891 375.859 77.8047ZM381.699 77.8047C381.699 78.5729 381.829 79.2826 382.09 79.9336C382.35 80.5716 382.702 81.125 383.145 81.5938C383.6 82.0625 384.121 82.4271 384.707 82.6875C385.306 82.9479 385.944 83.0781 386.621 83.0781C387.311 83.0781 387.949 82.9544 388.535 82.707C389.134 82.4466 389.648 82.082 390.078 81.6133C390.521 81.1445 390.866 80.5911 391.113 79.9531C391.361 79.3021 391.484 78.5859 391.484 77.8047C391.484 76.9974 391.361 76.2682 391.113 75.6172C390.866 74.9661 390.521 74.4128 390.078 73.957C389.648 73.5013 389.134 73.1562 388.535 72.9219C387.949 72.6745 387.311 72.5573 386.621 72.5703C385.944 72.5573 385.306 72.6745 384.707 72.9219C384.121 73.1562 383.6 73.5013 383.145 73.957C382.702 74.4128 382.35 74.9661 382.09 75.6172C381.829 76.2682 381.699 76.9974 381.699 77.8047ZM409.141 67.7656H412.832V72.8828H409.141V82.6484H412.871V88H400.312V82.6484H403.34V72.8828H400.273V67.7656H403.34V64.4062C403.34 63.2214 403.548 62.1797 403.965 61.2812C404.382 60.3828 404.935 59.6276 405.625 59.0156C406.328 58.4036 407.135 57.9414 408.047 57.6289C408.958 57.3164 409.915 57.1602 410.918 57.1602C411.66 57.1602 412.324 57.2188 412.91 57.3359C413.496 57.4401 414.01 57.5768 414.453 57.7461C414.896 57.9154 415.267 58.0977 415.566 58.293C415.879 58.4883 416.126 58.6706 416.309 58.8398L414.062 62.9609C413.763 62.7396 413.424 62.5638 413.047 62.4336C412.669 62.3034 412.207 62.2383 411.66 62.2383C411.309 62.2383 410.977 62.2969 410.664 62.4141C410.365 62.5312 410.098 62.7005 409.863 62.9219C409.642 63.1432 409.466 63.4232 409.336 63.7617C409.206 64.0872 409.141 64.4714 409.141 64.9141V67.7656ZM416.289 67.7656H425.371V82.6484H428.184V88H416.289V82.6484H419.336V73.1172H416.289V67.7656ZM419.023 61.2422C419.023 60.7604 419.108 60.3112 419.277 59.8945C419.46 59.4648 419.707 59.0938 420.02 58.7812C420.332 58.4688 420.697 58.2214 421.113 58.0391C421.543 57.8568 422.005 57.7656 422.5 57.7656C422.969 57.7656 423.411 57.8568 423.828 58.0391C424.245 58.2214 424.609 58.4688 424.922 58.7812C425.234 59.0938 425.482 59.4648 425.664 59.8945C425.846 60.3112 425.938 60.7604 425.938 61.2422C425.938 61.724 425.846 62.1797 425.664 62.6094C425.482 63.026 425.234 63.3906 424.922 63.7031C424.609 64.0156 424.245 64.263 423.828 64.4453C423.411 64.6276 422.969 64.7188 422.5 64.7188C422.005 64.7188 421.543 64.6276 421.113 64.4453C420.697 64.263 420.332 64.0156 420.02 63.7031C419.707 63.3906 419.46 63.026 419.277 62.6094C419.108 62.1797 419.023 61.724 419.023 61.2422ZM439.355 67.7656H443.398V72.8828H439.316L439.277 81.4375C439.277 81.9323 439.316 82.3359 439.395 82.6484C439.473 82.9479 439.583 83.1888 439.727 83.3711C439.883 83.5534 440.065 83.6771 440.273 83.7422C440.482 83.8073 440.723 83.8398 440.996 83.8398C441.491 83.8398 441.927 83.7943 442.305 83.7031C442.682 83.599 443.06 83.4818 443.438 83.3516L444.277 87.1211C443.613 87.5378 442.871 87.8698 442.051 88.1172C441.243 88.3646 440.28 88.4883 439.16 88.4883C438.366 88.4883 437.604 88.3516 436.875 88.0781C436.159 87.8047 435.527 87.3945 434.98 86.8477C434.434 86.2878 433.997 85.5911 433.672 84.7578C433.346 83.9245 433.19 82.9544 433.203 81.8477L433.262 72.8828H430.352V67.7656H433.281L433.32 62.9219L439.395 60.0312L439.355 67.7656ZM448.496 85.168C448.496 84.6862 448.581 84.237 448.75 83.8203C448.932 83.3906 449.18 83.0195 449.492 82.707C449.805 82.3815 450.169 82.1276 450.586 81.9453C451.016 81.763 451.478 81.6719 451.973 81.6719C452.441 81.6719 452.884 81.763 453.301 81.9453C453.73 82.1276 454.102 82.3815 454.414 82.707C454.727 83.0195 454.974 83.3906 455.156 83.8203C455.339 84.237 455.43 84.6862 455.43 85.168C455.43 85.6497 455.339 86.1055 455.156 86.5352C454.974 86.9518 454.727 87.3164 454.414 87.6289C454.102 87.9414 453.73 88.1888 453.301 88.3711C452.884 88.5534 452.441 88.6445 451.973 88.6445C451.478 88.6445 451.016 88.5534 450.586 88.3711C450.169 88.1888 449.805 87.9414 449.492 87.6289C449.18 87.3164 448.932 86.9518 448.75 86.5352C448.581 86.1055 448.496 85.6497 448.496 85.168ZM448.496 57.1992H455.703L454.902 78.0391H449.297L448.496 57.1992Z" transform="translate(198 458)" fill="white"/>
<path d="M17.01 10.79V14.87H11.25V32H6.09V14.87H0.39V10.79H17.01ZM29.7923 15.08C31.7123 15.08 33.2323 15.72 34.3523 17C35.4923 18.28 36.0623 20.04 36.0623 22.28V32H30.9323V22.88C30.9323 21.76 30.6323 20.89 30.0323 20.27C29.4523 19.63 28.6723 19.31 27.6923 19.31C26.6523 19.31 25.8223 19.64 25.2023 20.3C24.6023 20.96 24.3023 21.9 24.3023 23.12V32H19.1723V9.8H24.3023V18.32C24.7823 17.32 25.4923 16.53 26.4323 15.95C27.3923 15.37 28.5123 15.08 29.7923 15.08ZM55.3458 23.18C55.3458 23.6 55.2958 24.06 55.1958 24.56H43.5858C43.6458 25.82 43.9658 26.73 44.5458 27.29C45.1258 27.83 45.8658 28.1 46.7658 28.1C47.5258 28.1 48.1558 27.91 48.6558 27.53C49.1558 27.15 49.4858 26.66 49.6458 26.06H55.0758C54.8558 27.24 54.3758 28.3 53.6358 29.24C52.8958 30.16 51.9558 30.89 50.8158 31.43C49.6758 31.95 48.4058 32.21 47.0058 32.21C45.3658 32.21 43.9058 31.87 42.6258 31.19C41.3658 30.49 40.3758 29.49 39.6558 28.19C38.9358 26.89 38.5758 25.37 38.5758 23.63C38.5758 21.87 38.9258 20.35 39.6258 19.07C40.3458 17.77 41.3458 16.78 42.6258 16.1C43.9058 15.4 45.3658 15.05 47.0058 15.05C48.6658 15.05 50.1258 15.39 51.3858 16.07C52.6458 16.75 53.6158 17.71 54.2958 18.95C54.9958 20.17 55.3458 21.58 55.3458 23.18ZM50.1558 22.4C50.1758 21.3 49.8758 20.48 49.2558 19.94C48.6558 19.38 47.9058 19.1 47.0058 19.1C46.0658 19.1 45.2858 19.38 44.6658 19.94C44.0458 20.5 43.6958 21.32 43.6158 22.4H50.1558ZM74.0159 21.17L82.5659 32H76.3559L69.1559 22.49V32H64.0259V10.79H69.1559V20.12L76.4159 10.79H82.5659L74.0159 21.17ZM89.8688 10.79V32H84.7388V10.79H89.8688ZM98.5406 9.8V32H93.4106V9.8H98.5406ZM107.213 9.8V32H102.083V9.8H107.213ZM126.654 23.18C126.654 23.6 126.604 24.06 126.504 24.56H114.894C114.954 25.82 115.274 26.73 115.854 27.29C116.434 27.83 117.174 28.1 118.074 28.1C118.834 28.1 119.464 27.91 119.964 27.53C120.464 27.15 120.794 26.66 120.954 26.06H126.384C126.164 27.24 125.684 28.3 124.944 29.24C124.204 30.16 123.264 30.89 122.124 31.43C120.984 31.95 119.714 32.21 118.314 32.21C116.674 32.21 115.214 31.87 113.934 31.19C112.674 30.49 111.684 29.49 110.964 28.19C110.244 26.89 109.884 25.37 109.884 23.63C109.884 21.87 110.234 20.35 110.934 19.07C111.654 17.77 112.654 16.78 113.934 16.1C115.214 15.4 116.674 15.05 118.314 15.05C119.974 15.05 121.434 15.39 122.694 16.07C123.954 16.75 124.924 17.71 125.604 18.95C126.304 20.17 126.654 21.58 126.654 23.18ZM121.464 22.4C121.484 21.3 121.184 20.48 120.564 19.94C119.964 19.38 119.214 19.1 118.314 19.1C117.374 19.1 116.594 19.38 115.974 19.94C115.354 20.5 115.004 21.32 114.924 22.4H121.464ZM134.459 18.41C135.099 17.39 135.919 16.58 136.919 15.98C137.939 15.38 139.039 15.08 140.219 15.08V20.57H138.749C137.389 20.57 136.329 20.86 135.569 21.44C134.829 22.02 134.459 23 134.459 24.38V32H129.329V15.26H134.459V18.41ZM162.202 10.79V14.87H153.502V19.52H160.222V23.42H153.502V32H148.372V10.79H162.202ZM180.736 23.18C180.736 23.6 180.686 24.06 180.586 24.56H168.976C169.036 25.82 169.356 26.73 169.936 27.29C170.516 27.83 171.256 28.1 172.156 28.1C172.916 28.1 173.546 27.91 174.046 27.53C174.546 27.15 174.876 26.66 175.036 26.06H180.466C180.246 27.24 179.766 28.3 179.026 29.24C178.286 30.16 177.346 30.89 176.206 31.43C175.066 31.95 173.796 32.21 172.396 32.21C170.756 32.21 169.296 31.87 168.016 31.19C166.756 30.49 165.766 29.49 165.046 28.19C164.326 26.89 163.966 25.37 163.966 23.63C163.966 21.87 164.316 20.35 165.016 19.07C165.736 17.77 166.736 16.78 168.016 16.1C169.296 15.4 170.756 15.05 172.396 15.05C174.056 15.05 175.516 15.39 176.776 16.07C178.036 16.75 179.006 17.71 179.686 18.95C180.386 20.17 180.736 21.58 180.736 23.18ZM175.546 22.4C175.566 21.3 175.266 20.48 174.646 19.94C174.046 19.38 173.296 19.1 172.396 19.1C171.456 19.1 170.676 19.38 170.056 19.94C169.436 20.5 169.086 21.32 169.006 22.4H175.546ZM189.771 15.05C191.051 15.05 192.151 15.34 193.071 15.92C193.991 16.5 194.671 17.29 195.111 18.29V15.26H200.211V32H195.111V28.97C194.671 29.97 193.991 30.76 193.071 31.34C192.151 31.92 191.051 32.21 189.771 32.21C188.391 32.21 187.151 31.87 186.051 31.19C184.971 30.49 184.111 29.49 183.471 28.19C182.851 26.89 182.541 25.37 182.541 23.63C182.541 21.87 182.851 20.35 183.471 19.07C184.111 17.77 184.971 16.78 186.051 16.1C187.151 15.4 188.391 15.05 189.771 15.05ZM191.421 19.55C190.321 19.55 189.431 19.91 188.751 20.63C188.091 21.35 187.761 22.35 187.761 23.63C187.761 24.91 188.091 25.91 188.751 26.63C189.431 27.35 190.321 27.71 191.421 27.71C192.501 27.71 193.381 27.34 194.061 26.6C194.761 25.86 195.111 24.87 195.111 23.63C195.111 22.37 194.761 21.38 194.061 20.66C193.381 19.92 192.501 19.55 191.421 19.55ZM213.223 27.59V32H210.913C208.953 32 207.423 31.52 206.323 30.56C205.243 29.58 204.703 27.97 204.703 25.73V19.58H202.453V15.26H204.703V11.15H209.833V15.26H213.193V19.58H209.833V25.82C209.833 26.48 209.963 26.94 210.223 27.2C210.503 27.46 210.963 27.59 211.603 27.59H213.223ZM232.756 15.26V32H227.596V28.97C227.116 29.95 226.396 30.73 225.436 31.31C224.496 31.89 223.396 32.18 222.136 32.18C220.216 32.18 218.686 31.54 217.546 30.26C216.426 28.98 215.866 27.22 215.866 24.98V15.26H220.966V24.35C220.966 25.49 221.256 26.38 221.836 27.02C222.436 27.64 223.236 27.95 224.236 27.95C225.276 27.95 226.096 27.62 226.696 26.96C227.296 26.3 227.596 25.36 227.596 24.14V15.26H232.756ZM241.421 18.41C242.061 17.39 242.881 16.58 243.881 15.98C244.901 15.38 246.001 15.08 247.181 15.08V20.57H245.711C244.351 20.57 243.291 20.86 242.531 21.44C241.791 22.02 241.421 23 241.421 24.38V32H236.291V15.26H241.421V18.41ZM265.229 23.18C265.229 23.6 265.179 24.06 265.079 24.56H253.469C253.529 25.82 253.849 26.73 254.429 27.29C255.009 27.83 255.749 28.1 256.649 28.1C257.409 28.1 258.039 27.91 258.539 27.53C259.039 27.15 259.369 26.66 259.529 26.06H264.959C264.739 27.24 264.259 28.3 263.519 29.24C262.779 30.16 261.839 30.89 260.699 31.43C259.559 31.95 258.289 32.21 256.889 32.21C255.249 32.21 253.789 31.87 252.509 31.19C251.249 30.49 250.259 29.49 249.539 28.19C248.819 26.89 248.459 25.37 248.459 23.63C248.459 21.87 248.809 20.35 249.509 19.07C250.229 17.77 251.229 16.78 252.509 16.1C253.789 15.4 255.249 15.05 256.889 15.05C258.549 15.05 260.009 15.39 261.269 16.07C262.529 16.75 263.499 17.71 264.179 18.95C264.879 20.17 265.229 21.58 265.229 23.18ZM260.039 22.4C260.059 21.3 259.759 20.48 259.139 19.94C258.539 19.38 257.789 19.1 256.889 19.1C255.949 19.1 255.169 19.38 254.549 19.94C253.929 20.5 253.579 21.32 253.499 22.4H260.039ZM273.093 14.66V19.79H267.753V14.66H273.093ZM273.093 26.87V32H267.753V26.87H273.093Z" transform="translate(203 100)" fill="#21314E"/>
<path d="M12.474 61.446V64.438H8.25V77H4.466V64.438H0.286V61.446H12.474ZM21.8477 64.592C23.2557 64.592 24.3704 65.0613 25.1917 66C26.0277 66.9387 26.4457 68.2293 26.4457 69.872V77H22.6837V70.312C22.6837 69.4907 22.4637 68.8527 22.0237 68.398C21.5984 67.9287 21.0264 67.694 20.3077 67.694C19.5451 67.694 18.9364 67.936 18.4817 68.42C18.0417 68.904 17.8217 69.5933 17.8217 70.488V77H14.0597V60.72H17.8217V66.968C18.1737 66.2347 18.6944 65.6553 19.3837 65.23C20.0877 64.8047 20.9091 64.592 21.8477 64.592ZM40.5869 70.532C40.5869 70.84 40.5502 71.1773 40.4769 71.544H31.9629C32.0069 72.468 32.2416 73.1353 32.6669 73.546C33.0922 73.942 33.6349 74.14 34.2949 74.14C34.8522 74.14 35.3142 74.0007 35.6809 73.722C36.0476 73.4433 36.2896 73.084 36.4069 72.644H40.3889C40.2276 73.5093 39.8756 74.2867 39.3329 74.976C38.7902 75.6507 38.1009 76.186 37.2649 76.582C36.4289 76.9633 35.4976 77.154 34.4709 77.154C33.2682 77.154 32.1976 76.9047 31.2589 76.406C30.3349 75.8927 29.6089 75.1593 29.0809 74.206C28.5529 73.2527 28.2889 72.138 28.2889 70.862C28.2889 69.5713 28.5456 68.4567 29.0589 67.518C29.5869 66.5647 30.3202 65.8387 31.2589 65.34C32.1976 64.8267 33.2682 64.57 34.4709 64.57C35.6882 64.57 36.7589 64.8193 37.6829 65.318C38.6069 65.8167 39.3182 66.5207 39.8169 67.43C40.3302 68.3247 40.5869 69.3587 40.5869 70.532ZM36.7809 69.96C36.7956 69.1533 36.5756 68.552 36.1209 68.156C35.6809 67.7453 35.1309 67.54 34.4709 67.54C33.7816 67.54 33.2096 67.7453 32.7549 68.156C32.3002 68.5667 32.0436 69.168 31.9849 69.96H36.7809ZM51.6163 64.57C52.555 64.57 53.3616 64.7827 54.0363 65.208C54.711 65.6333 55.2096 66.2127 55.5323 66.946V64.724H59.2723V77H55.5323V74.778C55.2096 75.5113 54.711 76.0907 54.0363 76.516C53.3616 76.9413 52.555 77.154 51.6163 77.154C50.6043 77.154 49.695 76.9047 48.8883 76.406C48.0963 75.8927 47.4656 75.1593 46.9963 74.206C46.5416 73.2527 46.3143 72.138 46.3143 70.862C46.3143 69.5713 46.5416 68.4567 46.9963 67.518C47.4656 66.5647 48.0963 65.8387 48.8883 65.34C49.695 64.8267 50.6043 64.57 51.6163 64.57ZM52.8263 67.87C52.0196 67.87 51.367 68.134 50.8683 68.662C50.3843 69.19 50.1423 69.9233 50.1423 70.862C50.1423 71.8007 50.3843 72.534 50.8683 73.062C51.367 73.59 52.0196 73.854 52.8263 73.854C53.6183 73.854 54.2636 73.5827 54.7623 73.04C55.2756 72.4973 55.5323 71.7713 55.5323 70.862C55.5323 69.938 55.2756 69.212 54.7623 68.684C54.2636 68.1413 53.6183 67.87 52.8263 67.87ZM69.5185 64.57C70.5305 64.57 71.4325 64.8267 72.2245 65.34C73.0311 65.8387 73.6618 66.5647 74.1165 67.518C74.5858 68.4567 74.8205 69.5713 74.8205 70.862C74.8205 72.138 74.5858 73.2527 74.1165 74.206C73.6618 75.1593 73.0311 75.8927 72.2245 76.406C71.4325 76.9047 70.5305 77.154 69.5185 77.154C68.5798 77.154 67.7731 76.9413 67.0985 76.516C66.4238 76.0907 65.9325 75.5113 65.6245 74.778V77H61.8625V60.72H65.6245V66.946C65.9325 66.2127 66.4238 65.6333 67.0985 65.208C67.7731 64.7827 68.5798 64.57 69.5185 64.57ZM68.3085 67.87C67.5165 67.87 66.8638 68.1413 66.3505 68.684C65.8518 69.212 65.6025 69.938 65.6025 70.862C65.6025 71.7713 65.8518 72.4973 66.3505 73.04C66.8638 73.5827 67.5165 73.854 68.3085 73.854C69.1151 73.854 69.7605 73.59 70.2445 73.062C70.7431 72.534 70.9925 71.8007 70.9925 70.862C70.9925 69.9233 70.7431 69.19 70.2445 68.662C69.7605 68.134 69.1151 67.87 68.3085 67.87ZM76.4206 61.27C76.4206 60.698 76.6259 60.2287 77.0366 59.862C77.4473 59.4807 77.9899 59.29 78.6646 59.29C79.3393 59.29 79.8819 59.4807 80.2926 59.862C80.7033 60.2287 80.9086 60.698 80.9086 61.27C80.9086 61.8273 80.7033 62.2967 80.2926 62.678C79.8819 63.0447 79.3393 63.228 78.6646 63.228C77.9899 63.228 77.4473 63.0447 77.0366 62.678C76.6259 62.2967 76.4206 61.8273 76.4206 61.27ZM80.5346 64.724V77H76.7726V64.724H80.5346ZM86.894 60.72V77H83.132V60.72H86.894ZM89.1394 61.27C89.1394 60.698 89.3447 60.2287 89.7554 59.862C90.166 59.4807 90.7087 59.29 91.3834 59.29C92.058 59.29 92.6007 59.4807 93.0114 59.862C93.422 60.2287 93.6274 60.698 93.6274 61.27C93.6274 61.8273 93.422 62.2967 93.0114 62.678C92.6007 63.0447 92.058 63.228 91.3834 63.228C90.7087 63.228 90.166 63.0447 89.7554 62.678C89.3447 62.2967 89.1394 61.8273 89.1394 61.27ZM93.2534 64.724V77H89.4914V64.724H93.2534ZM102.803 73.766V77H101.109C99.6714 77 98.5494 76.648 97.7427 75.944C96.9507 75.2253 96.5547 74.0447 96.5547 72.402V67.892H94.9047V64.724H96.5547V61.71H100.317V64.724H102.781V67.892H100.317V72.468C100.317 72.952 100.412 73.2893 100.603 73.48C100.808 73.6707 101.145 73.766 101.615 73.766H102.803ZM107.755 64.724L110.703 72.248L113.453 64.724H117.611L109.955 82.852H105.819L108.701 76.538L103.553 64.724H107.755ZM129.007 64.57C130.224 64.57 131.309 64.8267 132.263 65.34C133.231 65.8387 133.986 66.5647 134.529 67.518C135.086 68.4713 135.365 69.586 135.365 70.862C135.365 72.138 135.086 73.2527 134.529 74.206C133.986 75.1593 133.231 75.8927 132.263 76.406C131.309 76.9047 130.224 77.154 129.007 77.154C127.789 77.154 126.697 76.9047 125.729 76.406C124.761 75.8927 123.998 75.1593 123.441 74.206C122.898 73.2527 122.627 72.138 122.627 70.862C122.627 69.586 122.898 68.4713 123.441 67.518C123.998 66.5647 124.761 65.8387 125.729 65.34C126.697 64.8267 127.789 64.57 129.007 64.57ZM129.007 67.826C128.288 67.826 127.679 68.09 127.181 68.618C126.697 69.1313 126.455 69.8793 126.455 70.862C126.455 71.8447 126.697 72.5927 127.181 73.106C127.679 73.6193 128.288 73.876 129.007 73.876C129.725 73.876 130.327 73.6193 130.811 73.106C131.295 72.5927 131.537 71.8447 131.537 70.862C131.537 69.8793 131.295 69.1313 130.811 68.618C130.327 68.09 129.725 67.826 129.007 67.826ZM143.344 63.052C142.728 63.052 142.28 63.184 142.002 63.448C141.723 63.712 141.569 64.1373 141.54 64.724H143.762V67.892H141.54V77H137.778V67.892H136.304V64.724H137.778V64.592C137.778 63.0667 138.218 61.8933 139.098 61.072C139.992 60.236 141.283 59.818 142.97 59.818C143.322 59.818 143.586 59.8253 143.762 59.84V63.074L143.344 63.052ZM154.285 64.57C155.84 64.57 157.079 64.9587 158.003 65.736C158.942 66.5133 159.529 67.54 159.763 68.816H156.243C156.141 68.3173 155.906 67.9287 155.539 67.65C155.187 67.3567 154.74 67.21 154.197 67.21C153.772 67.21 153.449 67.3053 153.229 67.496C153.009 67.672 152.899 67.9287 152.899 68.266C152.899 68.6473 153.097 68.9333 153.493 69.124C153.904 69.3147 154.542 69.5053 155.407 69.696C156.346 69.916 157.116 70.1433 157.717 70.378C158.319 70.598 158.839 70.9647 159.279 71.478C159.719 71.9913 159.939 72.6807 159.939 73.546C159.939 74.25 159.749 74.8733 159.367 75.416C158.986 75.9587 158.436 76.384 157.717 76.692C156.999 77 156.148 77.154 155.165 77.154C153.508 77.154 152.181 76.7873 151.183 76.054C150.186 75.3207 149.577 74.272 149.357 72.908H152.987C153.046 73.436 153.266 73.8393 153.647 74.118C154.043 74.3967 154.549 74.536 155.165 74.536C155.591 74.536 155.913 74.4407 156.133 74.25C156.353 74.0447 156.463 73.7807 156.463 73.458C156.463 73.0327 156.258 72.732 155.847 72.556C155.451 72.3653 154.799 72.1673 153.889 71.962C152.98 71.7713 152.232 71.566 151.645 71.346C151.059 71.126 150.553 70.774 150.127 70.29C149.702 69.7913 149.489 69.1167 149.489 68.266C149.489 67.166 149.907 66.2787 150.743 65.604C151.579 64.9147 152.76 64.57 154.285 64.57ZM173.683 70.532C173.683 70.84 173.646 71.1773 173.573 71.544H165.059C165.103 72.468 165.337 73.1353 165.763 73.546C166.188 73.942 166.731 74.14 167.391 74.14C167.948 74.14 168.41 74.0007 168.777 73.722C169.143 73.4433 169.385 73.084 169.503 72.644H173.485C173.323 73.5093 172.971 74.2867 172.429 74.976C171.886 75.6507 171.197 76.186 170.361 76.582C169.525 76.9633 168.593 77.154 167.567 77.154C166.364 77.154 165.293 76.9047 164.355 76.406C163.431 75.8927 162.705 75.1593 162.177 74.206C161.649 73.2527 161.385 72.138 161.385 70.862C161.385 69.5713 161.641 68.4567 162.155 67.518C162.683 66.5647 163.416 65.8387 164.355 65.34C165.293 64.8267 166.364 64.57 167.567 64.57C168.784 64.57 169.855 64.8193 170.779 65.318C171.703 65.8167 172.414 66.5207 172.913 67.43C173.426 68.3247 173.683 69.3587 173.683 70.532ZM169.877 69.96C169.891 69.1533 169.671 68.552 169.217 68.156C168.777 67.7453 168.227 67.54 167.567 67.54C166.877 67.54 166.305 67.7453 165.851 68.156C165.396 68.5667 165.139 69.168 165.081 69.96H169.877ZM183.432 64.592C184.84 64.592 185.954 65.0613 186.776 66C187.612 66.9387 188.03 68.2293 188.03 69.872V77H184.268V70.312C184.268 69.4907 184.048 68.8527 183.608 68.398C183.182 67.9287 182.61 67.694 181.892 67.694C181.129 67.694 180.52 67.936 180.066 68.42C179.626 68.904 179.406 69.5933 179.406 70.488V77H175.644V64.724H179.406V66.968C179.758 66.2347 180.278 65.6553 180.968 65.23C181.672 64.8047 182.493 64.592 183.432 64.592ZM195.175 64.57C196.114 64.57 196.92 64.7827 197.595 65.208C198.27 65.6333 198.761 66.2127 199.069 66.946V60.72H202.831V77H199.069V74.778C198.761 75.5113 198.27 76.0907 197.595 76.516C196.92 76.9413 196.114 77.154 195.175 77.154C194.163 77.154 193.254 76.9047 192.447 76.406C191.655 75.8927 191.024 75.1593 190.555 74.206C190.1 73.2527 189.873 72.138 189.873 70.862C189.873 69.5713 190.1 68.4567 190.555 67.518C191.024 66.5647 191.655 65.8387 192.447 65.34C193.254 64.8267 194.163 64.57 195.175 64.57ZM196.385 67.87C195.578 67.87 194.926 68.134 194.427 68.662C193.943 69.19 193.701 69.9233 193.701 70.862C193.701 71.8007 193.943 72.534 194.427 73.062C194.926 73.59 195.578 73.854 196.385 73.854C197.177 73.854 197.822 73.5827 198.321 73.04C198.834 72.4973 199.091 71.7713 199.091 70.862C199.091 69.938 198.834 69.212 198.321 68.684C197.822 68.1413 197.177 67.87 196.385 67.87ZM205.069 61.27C205.069 60.698 205.274 60.2287 205.685 59.862C206.096 59.4807 206.638 59.29 207.313 59.29C207.988 59.29 208.53 59.4807 208.941 59.862C209.352 60.2287 209.557 60.698 209.557 61.27C209.557 61.8273 209.352 62.2967 208.941 62.678C208.53 63.0447 207.988 63.228 207.313 63.228C206.638 63.228 206.096 63.0447 205.685 62.678C205.274 62.2967 205.069 61.8273 205.069 61.27ZM209.183 64.724V77H205.421V64.724H209.183ZM219.568 64.592C220.976 64.592 222.091 65.0613 222.912 66C223.748 66.9387 224.166 68.2293 224.166 69.872V77H220.404V70.312C220.404 69.4907 220.184 68.8527 219.744 68.398C219.319 67.9287 218.747 67.694 218.028 67.694C217.266 67.694 216.657 67.936 216.202 68.42C215.762 68.904 215.542 69.5933 215.542 70.488V77H211.78V64.724H215.542V66.968C215.894 66.2347 216.415 65.6553 217.104 65.23C217.808 64.8047 218.63 64.592 219.568 64.592ZM231.312 64.57C232.25 64.57 233.057 64.7827 233.732 65.208C234.406 65.6333 234.905 66.2127 235.228 66.946V64.724H238.968V76.934C238.968 78.078 238.748 79.1047 238.308 80.014C237.868 80.938 237.193 81.6713 236.284 82.214C235.374 82.7567 234.245 83.028 232.896 83.028C231.048 83.028 229.566 82.588 228.452 81.708C227.352 80.8427 226.692 79.662 226.472 78.166H230.19C230.307 78.6647 230.571 79.0533 230.982 79.332C231.407 79.6107 231.957 79.75 232.632 79.75C233.409 79.75 234.032 79.5227 234.502 79.068C234.986 78.628 235.228 77.9167 235.228 76.934V74.778C234.905 75.5113 234.406 76.0907 233.732 76.516C233.057 76.9413 232.25 77.154 231.312 77.154C230.3 77.154 229.39 76.9047 228.584 76.406C227.792 75.8927 227.161 75.1593 226.692 74.206C226.237 73.2527 226.01 72.138 226.01 70.862C226.01 69.5713 226.237 68.4567 226.692 67.518C227.161 66.5647 227.792 65.8387 228.584 65.34C229.39 64.8267 230.3 64.57 231.312 64.57ZM232.522 67.87C231.715 67.87 231.062 68.134 230.564 68.662C230.08 69.19 229.838 69.9233 229.838 70.862C229.838 71.8007 230.08 72.534 230.564 73.062C231.062 73.59 231.715 73.854 232.522 73.854C233.314 73.854 233.959 73.5827 234.458 73.04C234.971 72.4973 235.228 71.7713 235.228 70.862C235.228 69.938 234.971 69.212 234.458 68.684C233.959 68.1413 233.314 67.87 232.522 67.87ZM251.506 64.57C253.09 64.57 254.417 65.01 255.488 65.89C256.559 66.7553 257.233 67.9507 257.512 69.476H253.53C253.413 68.948 253.171 68.5373 252.804 68.244C252.437 67.9507 251.975 67.804 251.418 67.804C250.758 67.804 250.215 68.068 249.79 68.596C249.365 69.1093 249.152 69.8647 249.152 70.862C249.152 71.8593 249.365 72.622 249.79 73.15C250.215 73.6633 250.758 73.92 251.418 73.92C251.975 73.92 252.437 73.7733 252.804 73.48C253.171 73.1867 253.413 72.776 253.53 72.248H257.512C257.233 73.7733 256.559 74.976 255.488 75.856C254.417 76.7213 253.09 77.154 251.506 77.154C250.303 77.154 249.233 76.9047 248.294 76.406C247.37 75.8927 246.644 75.1593 246.116 74.206C245.588 73.2527 245.324 72.138 245.324 70.862C245.324 69.5713 245.581 68.4567 246.094 67.518C246.622 66.5647 247.355 65.8387 248.294 65.34C249.233 64.8267 250.303 64.57 251.506 64.57ZM263.238 67.034C263.707 66.286 264.308 65.692 265.042 65.252C265.79 64.812 266.596 64.592 267.462 64.592V68.618H266.384C265.386 68.618 264.609 68.8307 264.052 69.256C263.509 69.6813 263.238 70.4 263.238 71.412V77H259.476V64.724H263.238V67.034ZM271.874 64.724L274.822 72.248L277.572 64.724H281.73L274.074 82.852H269.938L272.82 76.538L267.672 64.724H271.874ZM290.636 64.57C291.648 64.57 292.55 64.8267 293.342 65.34C294.148 65.8387 294.779 66.5647 295.234 67.518C295.703 68.4567 295.938 69.5713 295.938 70.862C295.938 72.138 295.703 73.2527 295.234 74.206C294.779 75.1593 294.148 75.8927 293.342 76.406C292.55 76.9047 291.648 77.154 290.636 77.154C289.697 77.154 288.89 76.9413 288.216 76.516C287.541 76.0907 287.05 75.5113 286.742 74.778V82.852H282.98V64.724H286.742V66.946C287.05 66.2127 287.541 65.6333 288.216 65.208C288.89 64.7827 289.697 64.57 290.636 64.57ZM289.426 67.87C288.634 67.87 287.981 68.1413 287.468 68.684C286.969 69.212 286.72 69.938 286.72 70.862C286.72 71.7713 286.969 72.4973 287.468 73.04C287.981 73.5827 288.634 73.854 289.426 73.854C290.232 73.854 290.878 73.59 291.362 73.062C291.86 72.534 292.11 71.8007 292.11 70.862C292.11 69.9233 291.86 69.19 291.362 68.662C290.878 68.134 290.232 67.87 289.426 67.87ZM304.842 73.766V77H303.148C301.71 77 300.588 76.648 299.782 75.944C298.99 75.2253 298.594 74.0447 298.594 72.402V67.892H296.944V64.724H298.594V61.71H302.356V64.724H304.82V67.892H302.356V72.468C302.356 72.952 302.451 73.2893 302.642 73.48C302.847 73.6707 303.184 73.766 303.654 73.766H304.842ZM312.698 64.57C313.916 64.57 315.001 64.8267 315.954 65.34C316.922 65.8387 317.678 66.5647 318.22 67.518C318.778 68.4713 319.056 69.586 319.056 70.862C319.056 72.138 318.778 73.2527 318.22 74.206C317.678 75.1593 316.922 75.8927 315.954 76.406C315.001 76.9047 313.916 77.154 312.698 77.154C311.481 77.154 310.388 76.9047 309.42 76.406C308.452 75.8927 307.69 75.1593 307.132 74.206C306.59 73.2527 306.318 72.138 306.318 70.862C306.318 69.586 306.59 68.4713 307.132 67.518C307.69 66.5647 308.452 65.8387 309.42 65.34C310.388 64.8267 311.481 64.57 312.698 64.57ZM312.698 67.826C311.98 67.826 311.371 68.09 310.872 68.618C310.388 69.1313 310.146 69.8793 310.146 70.862C310.146 71.8447 310.388 72.5927 310.872 73.106C311.371 73.6193 311.98 73.876 312.698 73.876C313.417 73.876 314.018 73.6193 314.502 73.106C314.986 72.5927 315.228 71.8447 315.228 70.862C315.228 69.8793 314.986 69.1313 314.502 68.618C314.018 68.09 313.417 67.826 312.698 67.826ZM331.439 63.052C330.823 63.052 330.376 63.184 330.097 63.448C329.819 63.712 329.665 64.1373 329.635 64.724H331.857V67.892H329.635V77H325.873V67.892H324.399V64.724H325.873V64.592C325.873 63.0667 326.313 61.8933 327.193 61.072C328.088 60.236 329.379 59.818 331.065 59.818C331.417 59.818 331.681 59.8253 331.857 59.84V63.074L331.439 63.052ZM345.721 64.724V77H341.937V74.778C341.585 75.4967 341.057 76.0687 340.353 76.494C339.664 76.9193 338.857 77.132 337.933 77.132C336.525 77.132 335.403 76.6627 334.567 75.724C333.746 74.7853 333.335 73.4947 333.335 71.852V64.724H337.075V71.39C337.075 72.226 337.288 72.8787 337.713 73.348C338.153 73.8027 338.74 74.03 339.473 74.03C340.236 74.03 340.837 73.788 341.277 73.304C341.717 72.82 341.937 72.1307 341.937 71.236V64.724H345.721ZM356.102 64.592C357.51 64.592 358.624 65.0613 359.446 66C360.282 66.9387 360.7 68.2293 360.7 69.872V77H356.938V70.312C356.938 69.4907 356.718 68.8527 356.278 68.398C355.852 67.9287 355.28 67.694 354.562 67.694C353.799 67.694 353.19 67.936 352.736 68.42C352.296 68.904 352.076 69.5933 352.076 70.488V77H348.314V64.724H352.076V66.968C352.428 66.2347 352.948 65.6553 353.638 65.23C354.342 64.8047 355.163 64.592 356.102 64.592ZM367.845 64.57C368.783 64.57 369.59 64.7827 370.265 65.208C370.939 65.6333 371.431 66.2127 371.739 66.946V60.72H375.501V77H371.739V74.778C371.431 75.5113 370.939 76.0907 370.265 76.516C369.59 76.9413 368.783 77.154 367.845 77.154C366.833 77.154 365.923 76.9047 365.117 76.406C364.325 75.8927 363.694 75.1593 363.225 74.206C362.77 73.2527 362.543 72.138 362.543 70.862C362.543 69.5713 362.77 68.4567 363.225 67.518C363.694 66.5647 364.325 65.8387 365.117 65.34C365.923 64.8267 366.833 64.57 367.845 64.57ZM369.055 67.87C368.248 67.87 367.595 68.134 367.097 68.662C366.613 69.19 366.371 69.9233 366.371 70.862C366.371 71.8007 366.613 72.534 367.097 73.062C367.595 73.59 368.248 73.854 369.055 73.854C369.847 73.854 370.492 73.5827 370.991 73.04C371.504 72.4973 371.761 71.7713 371.761 70.862C371.761 69.938 371.504 69.212 370.991 68.684C370.492 68.1413 369.847 67.87 369.055 67.87ZM382.557 64.57C384.112 64.57 385.351 64.9587 386.275 65.736C387.214 66.5133 387.8 67.54 388.035 68.816H384.515C384.412 68.3173 384.178 67.9287 383.811 67.65C383.459 67.3567 383.012 67.21 382.469 67.21C382.044 67.21 381.721 67.3053 381.501 67.496C381.281 67.672 381.171 67.9287 381.171 68.266C381.171 68.6473 381.369 68.9333 381.765 69.124C382.176 69.3147 382.814 69.5053 383.679 69.696C384.618 69.916 385.388 70.1433 385.989 70.378C386.59 70.598 387.111 70.9647 387.551 71.478C387.991 71.9913 388.211 72.6807 388.211 73.546C388.211 74.25 388.02 74.8733 387.639 75.416C387.258 75.9587 386.708 76.384 385.989 76.692C385.27 77 384.42 77.154 383.437 77.154C381.78 77.154 380.452 76.7873 379.455 76.054C378.458 75.3207 377.849 74.272 377.629 72.908H381.259C381.318 73.436 381.538 73.8393 381.919 74.118C382.315 74.3967 382.821 74.536 383.437 74.536C383.862 74.536 384.185 74.4407 384.405 74.25C384.625 74.0447 384.735 73.7807 384.735 73.458C384.735 73.0327 384.53 72.732 384.119 72.556C383.723 72.3653 383.07 72.1673 382.161 71.962C381.252 71.7713 380.504 71.566 379.917 71.346C379.33 71.126 378.824 70.774 378.399 70.29C377.974 69.7913 377.761 69.1167 377.761 68.266C377.761 67.166 378.179 66.2787 379.015 65.604C379.851 64.9147 381.032 64.57 382.557 64.57ZM401.65 73.766V77H399.956C398.519 77 397.397 76.648 396.59 75.944C395.798 75.2253 395.402 74.0447 395.402 72.402V67.892H393.752V64.724H395.402V61.71H399.164V64.724H401.628V67.892H399.164V72.468C399.164 72.952 399.26 73.2893 399.45 73.48C399.656 73.6707 399.993 73.766 400.462 73.766H401.65ZM411.553 64.592C412.961 64.592 414.075 65.0613 414.897 66C415.733 66.9387 416.151 68.2293 416.151 69.872V77H412.389V70.312C412.389 69.4907 412.169 68.8527 411.729 68.398C411.303 67.9287 410.731 67.694 410.013 67.694C409.25 67.694 408.641 67.936 408.187 68.42C407.747 68.904 407.527 69.5933 407.527 70.488V77H403.765V60.72H407.527V66.968C407.879 66.2347 408.399 65.6553 409.089 65.23C409.793 64.8047 410.614 64.592 411.553 64.592ZM422.394 67.034C422.863 66.286 423.465 65.692 424.198 65.252C424.946 64.812 425.753 64.592 426.618 64.592V68.618H425.54C424.543 68.618 423.765 68.8307 423.208 69.256C422.665 69.6813 422.394 70.4 422.394 71.412V77H418.632V64.724H422.394V67.034ZM433.935 64.57C435.152 64.57 436.237 64.8267 437.191 65.34C438.159 65.8387 438.914 66.5647 439.457 67.518C440.014 68.4713 440.293 69.586 440.293 70.862C440.293 72.138 440.014 73.2527 439.457 74.206C438.914 75.1593 438.159 75.8927 437.191 76.406C436.237 76.9047 435.152 77.154 433.935 77.154C432.717 77.154 431.625 76.9047 430.657 76.406C429.689 75.8927 428.926 75.1593 428.369 74.206C427.826 73.2527 427.555 72.138 427.555 70.862C427.555 69.586 427.826 68.4713 428.369 67.518C428.926 66.5647 429.689 65.8387 430.657 65.34C431.625 64.8267 432.717 64.57 433.935 64.57ZM433.935 67.826C433.216 67.826 432.607 68.09 432.109 68.618C431.625 69.1313 431.383 69.8793 431.383 70.862C431.383 71.8447 431.625 72.5927 432.109 73.106C432.607 73.6193 433.216 73.876 433.935 73.876C434.653 73.876 435.255 73.6193 435.739 73.106C436.223 72.5927 436.465 71.8447 436.465 70.862C436.465 69.8793 436.223 69.1313 435.739 68.618C435.255 68.09 434.653 67.826 433.935 67.826ZM454.453 64.724V77H450.669V74.778C450.317 75.4967 449.789 76.0687 449.085 76.494C448.396 76.9193 447.589 77.132 446.665 77.132C445.257 77.132 444.135 76.6627 443.299 75.724C442.478 74.7853 442.067 73.4947 442.067 71.852V64.724H445.807V71.39C445.807 72.226 446.02 72.8787 446.445 73.348C446.885 73.8027 447.472 74.03 448.205 74.03C448.968 74.03 449.569 73.788 450.009 73.304C450.449 72.82 450.669 72.1307 450.669 71.236V64.724H454.453ZM461.71 64.57C462.649 64.57 463.455 64.7827 464.13 65.208C464.805 65.6333 465.303 66.2127 465.626 66.946V64.724H469.366V76.934C469.366 78.078 469.146 79.1047 468.706 80.014C468.266 80.938 467.591 81.6713 466.682 82.214C465.773 82.7567 464.643 83.028 463.294 83.028C461.446 83.028 459.965 82.588 458.85 81.708C457.75 80.8427 457.09 79.662 456.87 78.166H460.588C460.705 78.6647 460.969 79.0533 461.38 79.332C461.805 79.6107 462.355 79.75 463.03 79.75C463.807 79.75 464.431 79.5227 464.9 79.068C465.384 78.628 465.626 77.9167 465.626 76.934V74.778C465.303 75.5113 464.805 76.0907 464.13 76.516C463.455 76.9413 462.649 77.154 461.71 77.154C460.698 77.154 459.789 76.9047 458.982 76.406C458.19 75.8927 457.559 75.1593 457.09 74.206C456.635 73.2527 456.408 72.138 456.408 70.862C456.408 69.5713 456.635 68.4567 457.09 67.518C457.559 66.5647 458.19 65.8387 458.982 65.34C459.789 64.8267 460.698 64.57 461.71 64.57ZM462.92 67.87C462.113 67.87 461.461 68.134 460.962 68.662C460.478 69.19 460.236 69.9233 460.236 70.862C460.236 71.8007 460.478 72.534 460.962 73.062C461.461 73.59 462.113 73.854 462.92 73.854C463.712 73.854 464.357 73.5827 464.856 73.04C465.369 72.4973 465.626 71.7713 465.626 70.862C465.626 69.938 465.369 69.212 464.856 68.684C464.357 68.1413 463.712 67.87 462.92 67.87ZM479.744 64.592C481.152 64.592 482.267 65.0613 483.088 66C483.924 66.9387 484.342 68.2293 484.342 69.872V77H480.58V70.312C480.58 69.4907 480.36 68.8527 479.92 68.398C479.495 67.9287 478.923 67.694 478.204 67.694C477.442 67.694 476.833 67.936 476.378 68.42C475.938 68.904 475.718 69.5933 475.718 70.488V77H471.956V60.72H475.718V66.968C476.07 66.2347 476.591 65.6553 477.28 65.23C477.984 64.8047 478.806 64.592 479.744 64.592ZM494.066 64.724L497.014 72.248L499.764 64.724H503.922L496.266 82.852H492.13L495.012 76.538L489.864 64.724H494.066ZM510.913 64.57C512.13 64.57 513.216 64.8267 514.169 65.34C515.137 65.8387 515.892 66.5647 516.435 67.518C516.992 68.4713 517.271 69.586 517.271 70.862C517.271 72.138 516.992 73.2527 516.435 74.206C515.892 75.1593 515.137 75.8927 514.169 76.406C513.216 76.9047 512.13 77.154 510.913 77.154C509.696 77.154 508.603 76.9047 507.635 76.406C506.667 75.8927 505.904 75.1593 505.347 74.206C504.804 73.2527 504.533 72.138 504.533 70.862C504.533 69.586 504.804 68.4713 505.347 67.518C505.904 66.5647 506.667 65.8387 507.635 65.34C508.603 64.8267 509.696 64.57 510.913 64.57ZM510.913 67.826C510.194 67.826 509.586 68.09 509.087 68.618C508.603 69.1313 508.361 69.8793 508.361 70.862C508.361 71.8447 508.603 72.5927 509.087 73.106C509.586 73.6193 510.194 73.876 510.913 73.876C511.632 73.876 512.233 73.6193 512.717 73.106C513.201 72.5927 513.443 71.8447 513.443 70.862C513.443 69.8793 513.201 69.1313 512.717 68.618C512.233 68.09 511.632 67.826 510.913 67.826ZM531.432 64.724V77H527.648V74.778C527.296 75.4967 526.768 76.0687 526.064 76.494C525.374 76.9193 524.568 77.132 523.644 77.132C522.236 77.132 521.114 76.6627 520.278 75.724C519.456 74.7853 519.046 73.4947 519.046 71.852V64.724H522.786V71.39C522.786 72.226 522.998 72.8787 523.424 73.348C523.864 73.8027 524.45 74.03 525.184 74.03C525.946 74.03 526.548 73.788 526.988 73.304C527.428 72.82 527.648 72.1307 527.648 71.236V64.724H531.432ZM537.787 67.034C538.256 66.286 538.857 65.692 539.591 65.252C540.339 64.812 541.145 64.592 542.011 64.592V68.618H540.933C539.935 68.618 539.158 68.8307 538.601 69.256C538.058 69.6813 537.787 70.4 537.787 71.412V77H534.025V64.724H537.787V67.034ZM553.533 64.57C555.117 64.57 556.445 65.01 557.515 65.89C558.586 66.7553 559.261 67.9507 559.539 69.476H555.557C555.44 68.948 555.198 68.5373 554.831 68.244C554.465 67.9507 554.003 67.804 553.445 67.804C552.785 67.804 552.243 68.068 551.817 68.596C551.392 69.1093 551.179 69.8647 551.179 70.862C551.179 71.8593 551.392 72.622 551.817 73.15C552.243 73.6633 552.785 73.92 553.445 73.92C554.003 73.92 554.465 73.7733 554.831 73.48C555.198 73.1867 555.44 72.776 555.557 72.248H559.539C559.261 73.7733 558.586 74.976 557.515 75.856C556.445 76.7213 555.117 77.154 553.533 77.154C552.331 77.154 551.26 76.9047 550.321 76.406C549.397 75.8927 548.671 75.1593 548.143 74.206C547.615 73.2527 547.351 72.138 547.351 70.862C547.351 69.5713 547.608 68.4567 548.121 67.518C548.649 66.5647 549.383 65.8387 550.321 65.34C551.26 64.8267 552.331 64.57 553.533 64.57ZM567.245 64.57C568.462 64.57 569.548 64.8267 570.501 65.34C571.469 65.8387 572.224 66.5647 572.767 67.518C573.324 68.4713 573.603 69.586 573.603 70.862C573.603 72.138 573.324 73.2527 572.767 74.206C572.224 75.1593 571.469 75.8927 570.501 76.406C569.548 76.9047 568.462 77.154 567.245 77.154C566.028 77.154 564.935 76.9047 563.967 76.406C562.999 75.8927 562.236 75.1593 561.679 74.206C561.136 73.2527 560.865 72.138 560.865 70.862C560.865 69.586 561.136 68.4713 561.679 67.518C562.236 66.5647 562.999 65.8387 563.967 65.34C564.935 64.8267 566.028 64.57 567.245 64.57ZM567.245 67.826C566.526 67.826 565.918 68.09 565.419 68.618C564.935 69.1313 564.693 69.8793 564.693 70.862C564.693 71.8447 564.935 72.5927 565.419 73.106C565.918 73.6193 566.526 73.876 567.245 73.876C567.964 73.876 568.565 73.6193 569.049 73.106C569.533 72.5927 569.775 71.8447 569.775 70.862C569.775 69.8793 569.533 69.1313 569.049 68.618C568.565 68.09 567.964 67.826 567.245 67.826ZM583.342 64.592C584.75 64.592 585.865 65.0613 586.686 66C587.522 66.9387 587.94 68.2293 587.94 69.872V77H584.178V70.312C584.178 69.4907 583.958 68.8527 583.518 68.398C583.093 67.9287 582.521 67.694 581.802 67.694C581.039 67.694 580.431 67.936 579.976 68.42C579.536 68.904 579.316 69.5933 579.316 70.488V77H575.554V64.724H579.316V66.968C579.668 66.2347 580.189 65.6553 580.878 65.23C581.582 64.8047 582.403 64.592 583.342 64.592ZM597.373 73.766V77H595.679C594.242 77 593.12 76.648 592.313 75.944C591.521 75.2253 591.125 74.0447 591.125 72.402V67.892H589.475V64.724H591.125V61.71H594.887V64.724H597.351V67.892H594.887V72.468C594.887 72.952 594.982 73.2893 595.173 73.48C595.378 73.6707 595.716 73.766 596.185 73.766H597.373ZM604.151 64.57C605.09 64.57 605.897 64.7827 606.571 65.208C607.246 65.6333 607.745 66.2127 608.067 66.946V64.724H611.807V77H608.067V74.778C607.745 75.5113 607.246 76.0907 606.571 76.516C605.897 76.9413 605.09 77.154 604.151 77.154C603.139 77.154 602.23 76.9047 601.423 76.406C600.631 75.8927 600.001 75.1593 599.531 74.206C599.077 73.2527 598.849 72.138 598.849 70.862C598.849 69.5713 599.077 68.4567 599.531 67.518C600.001 66.5647 600.631 65.8387 601.423 65.34C602.23 64.8267 603.139 64.57 604.151 64.57ZM605.361 67.87C604.555 67.87 603.902 68.134 603.403 68.662C602.919 69.19 602.677 69.9233 602.677 70.862C602.677 71.8007 602.919 72.534 603.403 73.062C603.902 73.59 604.555 73.854 605.361 73.854C606.153 73.854 606.799 73.5827 607.297 73.04C607.811 72.4973 608.067 71.7713 608.067 70.862C608.067 69.938 607.811 69.212 607.297 68.684C606.799 68.1413 606.153 67.87 605.361 67.87ZM619.942 64.57C621.526 64.57 622.853 65.01 623.924 65.89C624.994 66.7553 625.669 67.9507 625.948 69.476H621.966C621.848 68.948 621.606 68.5373 621.24 68.244C620.873 67.9507 620.411 67.804 619.854 67.804C619.194 67.804 618.651 68.068 618.226 68.596C617.8 69.1093 617.588 69.8647 617.588 70.862C617.588 71.8593 617.8 72.622 618.226 73.15C618.651 73.6633 619.194 73.92 619.854 73.92C620.411 73.92 620.873 73.7733 621.24 73.48C621.606 73.1867 621.848 72.776 621.966 72.248H625.948C625.669 73.7733 624.994 74.976 623.924 75.856C622.853 76.7213 621.526 77.154 619.942 77.154C618.739 77.154 617.668 76.9047 616.73 76.406C615.806 75.8927 615.08 75.1593 614.552 74.206C614.024 73.2527 613.76 72.138 613.76 70.862C613.76 69.5713 614.016 68.4567 614.53 67.518C615.058 66.5647 615.791 65.8387 616.73 65.34C617.668 64.8267 618.739 64.57 619.942 64.57ZM634.863 73.766V77H633.169C631.732 77 630.61 76.648 629.803 75.944C629.011 75.2253 628.615 74.0447 628.615 72.402V67.892H626.965V64.724H628.615V61.71H632.377V64.724H634.841V67.892H632.377V72.468C632.377 72.952 632.473 73.2893 632.663 73.48C632.869 73.6707 633.206 73.766 633.675 73.766H634.863ZM641.444 64.57C642.998 64.57 644.238 64.9587 645.162 65.736C646.1 66.5133 646.687 67.54 646.922 68.816H643.402C643.299 68.3173 643.064 67.9287 642.698 67.65C642.346 67.3567 641.898 67.21 641.356 67.21C640.93 67.21 640.608 67.3053 640.388 67.496C640.168 67.672 640.058 67.9287 640.058 68.266C640.058 68.6473 640.256 68.9333 640.652 69.124C641.062 69.3147 641.7 69.5053 642.566 69.696C643.504 69.916 644.274 70.1433 644.876 70.378C645.477 70.598 645.998 70.9647 646.438 71.478C646.878 71.9913 647.098 72.6807 647.098 73.546C647.098 74.25 646.907 74.8733 646.526 75.416C646.144 75.9587 645.594 76.384 644.876 76.692C644.157 77 643.306 77.154 642.324 77.154C640.666 77.154 639.339 76.7873 638.342 76.054C637.344 75.3207 636.736 74.272 636.516 72.908H640.146C640.204 73.436 640.424 73.8393 640.806 74.118C641.202 74.3967 641.708 74.536 642.324 74.536C642.749 74.536 643.072 74.4407 643.292 74.25C643.512 74.0447 643.622 73.7807 643.622 73.458C643.622 73.0327 643.416 72.732 643.006 72.556C642.61 72.3653 641.957 72.1673 641.048 71.962C640.138 71.7713 639.39 71.566 638.804 71.346C638.217 71.126 637.711 70.774 637.286 70.29C636.86 69.7913 636.648 69.1167 636.648 68.266C636.648 67.166 637.066 66.2787 637.902 65.604C638.738 64.9147 639.918 64.57 641.444 64.57Z" transform="translate(203 100)" fill="white"/>
</svg>
