<svg width="32" height="98" viewBox="0 0 32 98" fill="none" xmlns="http://www.w3.org/2000/svg">
<path d="M39.0078 1.22745H0.606936C0.271907 1.22745 0 0.952502 0 0.613725C0 0.274948 0.271907 0 0.606936 0H39.0078C39.3428 0 39.6147 0.274948 39.6147 0.613725C39.6147 0.952502 39.3428 1.22745 39.0078 1.22745Z" transform="translate(16.615 58.3853) rotate(90)" fill="white"/>
<path d="M0.607239 32C0.451864 32 0.296488 31.9399 0.177529 31.8208C-0.0591762 31.5814 -0.0591762 31.1923 0.177529 30.953L14.9673 15.9977L0.177529 1.04732C-0.0591762 0.807971 -0.0591762 0.418868 0.177529 0.179515C0.414234 -0.0598383 0.799032 -0.0598383 1.03574 0.179515L16.254 15.5632C16.3681 15.6786 16.4313 15.8344 16.4313 15.9977C16.4313 16.1609 16.3669 16.3168 16.254 16.4322L1.03574 31.8196C0.917991 31.9399 0.762615 32 0.607239 32Z" transform="translate(32 81.5676) rotate(90)" fill="white"/>
<path d="M10.9929 0C4.93127 0 0 4.8757 0 10.8682V21.7529C0 27.7453 4.93127 32.6205 10.9929 32.6205C17.0545 32.6205 21.9858 27.7454 21.9858 21.7529V10.8682C21.9858 4.8757 17.0544 0 10.9929 0ZM20.7644 21.7529C20.7644 27.0793 16.3809 31.4124 10.9929 31.4124C5.6049 31.4124 1.22141 27.0793 1.22141 21.7529V10.8682C1.22141 5.54186 5.6049 1.20815 10.9929 1.20815C16.3809 1.20815 20.7644 5.54171 20.7644 10.8682V21.7529Z" transform="translate(5.70312)" fill="white"/>
<path d="M0.610786 0C0.273498 0 0 0.270218 0 0.604153V6.07455C0 6.40848 0.273498 6.6787 0.610786 6.6787C0.948074 6.6787 1.22157 6.40848 1.22157 6.07455V0.604153C1.22141 0.270218 0.948074 0 0.610786 0Z" transform="translate(16.0852 3.62451)" fill="white"/>
</svg>
