<svg width="320" height="184" viewBox="0 0 320 184" fill="none" xmlns="http://www.w3.org/2000/svg">
<path fill-rule="evenodd" clip-rule="evenodd" d="M37.3906 62.6235C39.8815 61.891 42.2609 60.8208 44.4628 59.4427C46.6533 58.0674 48.6532 56.4086 50.4107 54.5092C52.201 52.577 53.7401 50.4257 54.9915 48.1063C57.6276 43.1912 59.0074 37.698 59.0074 32.1179C59.0074 26.5377 57.6276 21.0445 54.9915 16.1294C53.7401 13.8101 52.201 11.6587 50.4107 9.72657C48.6532 7.82712 46.6533 6.16831 44.4628 4.79308C42.261 3.4146 39.8815 2.34401 37.3906 1.61101C32.213 0.106934 26.7158 0.106934 21.5383 1.61101C19.0549 2.34693 16.6826 3.41739 14.4866 4.79308C12.296 6.16771 10.2965 7.82658 8.53988 9.72657C6.75076 11.6552 5.2176 13.8073 3.97841 16.1294C1.35121 21.0535 -0.0156933 26.554 0.000258449 32.1378C-0.0109135 34.9766 0.34015 37.8052 1.04491 40.5548C1.7183 43.1803 2.70315 45.7156 3.97841 48.1063C5.2176 50.4285 6.75076 52.5805 8.53988 54.5092C10.2965 56.4092 12.296 58.068 14.4866 59.4427C16.6827 60.818 19.0549 61.888 21.5383 62.6235C26.7158 64.1276 32.213 64.1276 37.3906 62.6235ZM23.1059 49.5963C21.1774 48.5899 19.4801 47.1907 18.1229 45.4883C16.6884 43.6812 15.58 41.6368 14.8477 39.4473C14.0485 37.0941 13.6481 34.6235 13.6629 32.1378C13.647 29.6323 14.0474 27.1416 14.8477 24.7679C15.5767 22.5707 16.6854 20.519 18.1229 18.7063C19.4802 17.0043 21.1775 15.6054 23.1059 14.5995C25.0757 13.6067 27.2499 13.0895 29.4548 13.0895C31.6596 13.0895 33.8339 13.6067 35.8036 14.5995C37.7357 15.6087 39.4391 17.0068 40.8071 18.7063C42.2536 20.5129 43.3627 22.5663 44.0812 24.7679C45.6281 29.5371 45.6353 34.6737 44.1017 39.4473C43.3938 41.639 42.2983 43.6852 40.8675 45.4883C39.5055 47.1941 37.8008 48.5937 35.864 49.5963C33.8811 50.6121 31.6816 51.1301 29.4548 51.1056C27.2474 51.1285 25.0679 50.6104 23.1059 49.5963ZM61.5239 11.035H67.9537V51.6297H61.5239V62.6647H84.5499V51.6297H80.2903V44.7838H86.5583L100.06 62.6647H111.352V50.5428H104.436L96.5194 40.9578L104.275 31.9769H111.748V20.9419H90.2152V31.9769L87.3167 36.1248H80.2855V-5.17127e-06H61.5239V11.035ZM117.561 28.9364C117.908 29.7875 118.42 30.5609 119.068 31.2119C119.72 31.8629 120.491 32.3823 121.339 32.7418C122.234 33.1232 123.198 33.3152 124.171 33.3058C125.111 33.3111 126.042 33.119 126.904 32.7418C128.606 32.0098 129.959 30.6461 130.68 28.9364C131.052 28.0502 131.243 27.0986 131.243 26.1374C131.243 25.1762 131.052 24.2246 130.68 23.3384C130.321 22.4891 129.803 21.7166 129.154 21.0629C128.506 20.4154 127.743 19.8959 126.904 19.5318C126.042 19.1556 125.111 18.9639 124.171 18.969C123.198 18.9598 122.234 19.1514 121.339 19.5318C120.491 19.8917 119.72 20.4115 119.068 21.0629C118.42 21.7137 117.908 22.4872 117.561 23.3384C116.839 25.1344 116.84 27.1411 117.563 28.9364H117.561ZM117.561 59.6242C117.908 60.4774 118.421 61.2527 119.071 61.9046C119.723 62.556 120.493 63.0758 121.341 63.4357C122.237 63.8165 123.201 64.0085 124.173 63.9997C125.113 64.0044 126.044 63.8123 126.906 63.4357C127.746 63.0716 128.509 62.5521 129.156 61.9046C129.805 61.2513 130.324 60.4792 130.683 59.6303C131.054 58.7441 131.245 57.7925 131.245 56.8313C131.245 55.8701 131.054 54.9185 130.683 54.0323C130.321 53.1773 129.803 52.3974 129.156 51.7326C128.513 51.0752 127.749 50.5487 126.906 50.1821C126.044 49.8055 125.113 49.6134 124.173 49.6181C122.757 49.6048 121.37 50.0182 120.192 50.8046C119.013 51.5911 118.097 52.7143 117.563 54.0287C116.841 55.8236 116.841 57.8293 117.563 59.6242H117.561ZM135.788 31.9769H141.895V51.6297H135.715V62.6647H161.594V51.6297H154.918V35.4809C155.986 34.0149 157.401 32.8382 159.036 32.0567C160.343 31.4657 161.761 31.1635 163.195 31.1708C164.154 31.1858 165.102 31.3842 165.987 31.7554C166.812 32.1044 167.558 32.6184 168.178 33.2659C168.813 33.9383 169.306 34.7325 169.627 35.6007C169.987 36.5804 170.164 37.6179 170.15 38.6618V62.6647H189.157V51.6297H183.129V36.8293C183.129 36.521 183.116 36.2192 183.089 35.9239C184.129 34.4265 185.477 33.1697 187.042 32.2383C188.344 31.5333 189.801 31.1663 191.281 31.1708C192.224 31.1179 193.166 31.2706 194.044 31.6183C194.921 31.966 195.713 32.5005 196.364 33.1848C197.657 34.737 198.311 36.7245 198.193 38.7428V62.6647H217.2V51.6297H211.293V36.6889C211.293 31.2656 209.926 27.1442 207.194 24.3249C204.461 21.5055 200.55 20.0958 195.461 20.0958C194.033 20.0938 192.61 20.2628 191.222 20.5993C189.857 20.9302 188.53 21.4028 187.263 22.0094C186.014 22.6078 184.823 23.3222 183.707 24.1433C182.618 24.9429 181.615 25.854 180.714 26.8618C179.505 24.6546 177.645 22.8754 175.389 21.7674C172.84 20.5928 170.056 20.0209 167.252 20.0958C164.987 20.0947 162.74 20.5047 160.621 21.3062C158.533 22.0823 156.58 23.1853 154.835 24.5742V20.9491H135.79V31.9841L135.788 31.9769ZM244.649 62.6647H262.009V51.6297H256.423V36.4468C256.494 33.8313 256.037 31.2284 255.078 28.7948C254.267 26.8208 252.992 25.0728 251.361 23.7003C249.694 22.3556 247.753 21.3933 245.675 20.8814C243.317 20.2861 240.893 19.9953 238.461 20.0159C235.234 19.9965 232.025 20.4997 228.958 21.5059C225.912 22.5309 223.025 23.9815 220.383 25.8148L224.242 33.6278C225.993 32.6951 227.847 31.972 229.767 31.4733C231.943 30.9462 234.178 30.6958 236.417 30.7278C237.538 30.7193 238.656 30.8341 239.752 31.0703C240.684 31.2633 241.571 31.6331 242.364 32.1596C243.075 32.6412 243.656 33.2915 244.055 34.0527C244.475 34.8957 244.683 35.8291 244.659 36.7712V38.0602C243.32 37.7649 241.867 37.5163 240.299 37.3146C238.573 37.1042 236.835 37.0035 235.095 37.0132C232.748 36.9768 230.409 37.3096 228.164 37.9997C226.297 38.5745 224.557 39.5045 223.04 40.7388C221.669 41.8788 220.576 43.3184 219.846 44.9472C219.12 46.628 218.744 48.4395 218.741 50.2709C218.737 52.1023 219.107 53.9151 219.826 55.5985C220.545 57.2181 221.608 58.6612 222.94 59.8276C224.401 61.084 226.094 62.0417 227.923 62.6465C230.08 63.3609 232.342 63.7078 234.613 63.6729C235.528 63.6785 236.441 63.6182 237.346 63.4926C239.008 63.2544 240.613 62.7216 242.088 61.9191C242.864 61.5027 243.721 60.9992 244.659 60.4085V62.6647H244.649ZM231.409 52.9188C230.975 52.5296 230.63 52.051 230.398 51.5158C230.165 50.9806 230.051 50.4014 230.063 49.8178C230.05 49.2006 230.195 48.5903 230.486 48.0458C230.763 47.5395 231.146 47.0997 231.61 46.7567C232.091 46.4016 232.628 46.1292 233.198 45.9506C233.784 45.764 234.395 45.6693 235.01 45.6698H244.649V50.9858C243.444 51.9329 242.102 52.693 240.671 53.2407C239.018 53.8763 237.259 54.1905 235.488 54.1666C234.02 54.2818 232.563 53.836 231.409 52.9188ZM267.196 31.9793H273.465V51.6321H267.196V62.6671H291.667V51.6321H285.881V20.9419H267.196V31.9769V31.9793ZM273.364 10.2918C273.711 11.1426 274.223 11.9159 274.871 12.5673C275.523 13.2185 276.294 13.7382 277.141 14.0984C278.037 14.4794 279.002 14.671 279.975 14.6613C280.914 14.6668 281.845 14.4751 282.706 14.0984C284.409 13.3661 285.762 12.002 286.484 10.2918C286.855 9.4056 287.047 8.45404 287.047 7.49282C287.047 6.5316 286.855 5.58004 286.484 4.69383C285.762 2.98435 284.408 1.62084 282.706 0.88842C281.845 0.511947 280.914 0.319835 279.975 0.324381C279.001 0.315624 278.037 0.50762 277.141 0.88842C276.294 1.24863 275.523 1.76839 274.871 2.41954C274.224 3.07069 273.712 3.8436 273.364 4.69383C272.641 6.48878 272.641 8.49444 273.364 10.2894V10.2918ZM294.805 11.0374H301.235V51.6321H294.805V62.6671H320V51.6321H313.57V-5.17127e-06H294.805V11.035V11.0374Z" transform="translate(0 60)" fill="#F2DADC"/>
<path opacity="0.8" d="M27.57 10.85L22.11 32H19.59L14.31 13.88L9 32H6.48L1.02 10.85H3.36L7.77 29.39L13.11 10.85H15.48L20.82 29.42L25.26 10.85H27.57ZM38.0138 30.47C39.4938 30.47 40.7338 30.1 41.7337 29.36C42.7338 28.62 43.3338 27.62 43.5337 26.36H45.7538C45.4537 28.1 44.6237 29.51 43.2637 30.59C41.9038 31.67 40.1838 32.21 38.1038 32.21C36.5437 32.21 35.1537 31.88 33.9338 31.22C32.7338 30.54 31.7938 29.57 31.1137 28.31C30.4338 27.03 30.0938 25.53 30.0938 23.81C30.0938 22.09 30.4338 20.6 31.1137 19.34C31.7938 18.06 32.7338 17.09 33.9338 16.43C35.1537 15.75 36.5437 15.41 38.1038 15.41C39.7038 15.41 41.0838 15.75 42.2438 16.43C43.4238 17.09 44.3138 17.98 44.9138 19.1C45.5338 20.22 45.8437 21.44 45.8437 22.76C45.8437 23.32 45.8037 23.83 45.7237 24.29H32.1638C32.1837 25.67 32.4637 26.83 33.0037 27.77C33.5637 28.69 34.2837 29.37 35.1637 29.81C36.0438 30.25 36.9938 30.47 38.0138 30.47ZM38.1038 17.12C37.0437 17.12 36.0737 17.34 35.1937 17.78C34.3137 18.22 33.5938 18.9 33.0338 19.82C32.4938 20.72 32.2038 21.85 32.1638 23.21H43.7437C43.8238 21.87 43.6038 20.74 43.0838 19.82C42.5637 18.9 41.8637 18.22 40.9837 17.78C40.1037 17.34 39.1437 17.12 38.1038 17.12ZM51.7537 9.8V32H49.6237V9.8H51.7537ZM63.5334 15.41C65.6134 15.41 67.3334 15.96 68.6934 17.06C70.0734 18.16 70.9134 19.62 71.2134 21.44H69.0234C68.8034 20.14 68.1934 19.12 67.1934 18.38C66.1934 17.62 64.9634 17.24 63.5034 17.24C62.4434 17.24 61.4634 17.48 60.5634 17.96C59.6834 18.44 58.9734 19.18 58.4334 20.18C57.9134 21.16 57.6534 22.37 57.6534 23.81C57.6534 25.25 57.9134 26.47 58.4334 27.47C58.9734 28.45 59.6834 29.18 60.5634 29.66C61.4634 30.14 62.4434 30.38 63.5034 30.38C64.9634 30.38 66.1934 30.01 67.1934 29.27C68.1934 28.51 68.8034 27.48 69.0234 26.18H71.2134C70.9134 28 70.0734 29.46 68.6934 30.56C67.3334 31.66 65.6134 32.21 63.5334 32.21C61.9734 32.21 60.5834 31.88 59.3634 31.22C58.1634 30.54 57.2234 29.57 56.5434 28.31C55.8634 27.03 55.5234 25.53 55.5234 23.81C55.5234 22.09 55.8634 20.6 56.5434 19.34C57.2234 18.06 58.1634 17.09 59.3634 16.43C60.5834 15.75 61.9734 15.41 63.5334 15.41ZM82.4048 15.41C83.9648 15.41 85.3548 15.75 86.5748 16.43C87.8148 17.09 88.7848 18.06 89.4848 19.34C90.1848 20.6 90.5348 22.09 90.5348 23.81C90.5348 25.53 90.1848 27.02 89.4848 28.28C88.7848 29.54 87.8148 30.51 86.5748 31.19C85.3548 31.87 83.9648 32.21 82.4048 32.21C80.8448 32.21 79.4448 31.87 78.2048 31.19C76.9648 30.51 75.9848 29.54 75.2648 28.28C74.5648 27 74.2148 25.51 74.2148 23.81C74.2148 22.09 74.5648 20.6 75.2648 19.34C75.9848 18.06 76.9648 17.09 78.2048 16.43C79.4448 15.75 80.8448 15.41 82.4048 15.41ZM82.4048 17.24C81.3248 17.24 80.3248 17.48 79.4048 17.96C78.4848 18.44 77.7448 19.18 77.1848 20.18C76.6248 21.16 76.3448 22.37 76.3448 23.81C76.3448 25.25 76.6248 26.46 77.1848 27.44C77.7448 28.42 78.4848 29.15 79.4048 29.63C80.3248 30.11 81.3248 30.35 82.4048 30.35C83.4648 30.35 84.4448 30.11 85.3448 29.63C86.2648 29.15 87.0048 28.42 87.5648 27.44C88.1248 26.46 88.4048 25.25 88.4048 23.81C88.4048 22.37 88.1248 21.16 87.5648 20.18C87.0048 19.18 86.2648 18.44 85.3448 17.96C84.4448 17.48 83.4648 17.24 82.4048 17.24ZM114.191 15.32C116.071 15.32 117.591 15.93 118.751 17.15C119.931 18.35 120.521 20.12 120.521 22.46V32H118.421V22.61C118.421 20.85 117.991 19.5 117.131 18.56C116.291 17.62 115.131 17.15 113.651 17.15C112.071 17.15 110.811 17.67 109.871 18.71C108.931 19.75 108.461 21.28 108.461 23.3V32H106.391V22.61C106.391 20.85 105.961 19.5 105.101 18.56C104.261 17.62 103.101 17.15 101.621 17.15C100.041 17.15 98.7815 17.67 97.8415 18.71C96.9015 19.75 96.4315 21.28 96.4315 23.3V32H94.3015V15.62H96.4315V19.52C96.8315 18.14 97.5515 17.1 98.5915 16.4C99.6515 15.68 100.871 15.32 102.251 15.32C103.691 15.32 104.931 15.7 105.971 16.46C107.011 17.22 107.731 18.34 108.131 19.82C108.571 18.36 109.341 17.25 110.441 16.49C111.541 15.71 112.791 15.32 114.191 15.32ZM132.086 30.47C133.566 30.47 134.806 30.1 135.806 29.36C136.806 28.62 137.406 27.62 137.606 26.36H139.826C139.526 28.1 138.696 29.51 137.336 30.59C135.976 31.67 134.256 32.21 132.176 32.21C130.616 32.21 129.226 31.88 128.006 31.22C126.806 30.54 125.866 29.57 125.186 28.31C124.506 27.03 124.166 25.53 124.166 23.81C124.166 22.09 124.506 20.6 125.186 19.34C125.866 18.06 126.806 17.09 128.006 16.43C129.226 15.75 130.616 15.41 132.176 15.41C133.776 15.41 135.156 15.75 136.316 16.43C137.496 17.09 138.386 17.98 138.986 19.1C139.606 20.22 139.916 21.44 139.916 22.76C139.916 23.32 139.876 23.83 139.796 24.29H126.236C126.256 25.67 126.536 26.83 127.076 27.77C127.636 28.69 128.356 29.37 129.236 29.81C130.116 30.25 131.066 30.47 132.086 30.47ZM132.176 17.12C131.116 17.12 130.146 17.34 129.266 17.78C128.386 18.22 127.666 18.9 127.106 19.82C126.566 20.72 126.276 21.85 126.236 23.21H137.816C137.896 21.87 137.676 20.74 137.156 19.82C136.636 18.9 135.936 18.22 135.056 17.78C134.176 17.34 133.216 17.12 132.176 17.12ZM158.929 30.14V32H156.979C155.399 32 154.219 31.63 153.439 30.89C152.659 30.13 152.269 28.86 152.269 27.08V17.45H149.779V15.62H152.269V11.48H154.399V15.62H158.899V17.45H154.399V27.11C154.399 28.27 154.609 29.07 155.029 29.51C155.449 29.93 156.189 30.14 157.249 30.14H158.929ZM169.797 15.41C171.357 15.41 172.747 15.75 173.967 16.43C175.207 17.09 176.177 18.06 176.877 19.34C177.577 20.6 177.927 22.09 177.927 23.81C177.927 25.53 177.577 27.02 176.877 28.28C176.177 29.54 175.207 30.51 173.967 31.19C172.747 31.87 171.357 32.21 169.797 32.21C168.237 32.21 166.837 31.87 165.597 31.19C164.357 30.51 163.377 29.54 162.657 28.28C161.957 27 161.607 25.51 161.607 23.81C161.607 22.09 161.957 20.6 162.657 19.34C163.377 18.06 164.357 17.09 165.597 16.43C166.837 15.75 168.237 15.41 169.797 15.41ZM169.797 17.24C168.717 17.24 167.717 17.48 166.797 17.96C165.877 18.44 165.137 19.18 164.577 20.18C164.017 21.16 163.737 22.37 163.737 23.81C163.737 25.25 164.017 26.46 164.577 27.44C165.137 28.42 165.877 29.15 166.797 29.63C167.717 30.11 168.717 30.35 169.797 30.35C170.857 30.35 171.837 30.11 172.737 29.63C173.657 29.15 174.397 28.42 174.957 27.44C175.517 26.46 175.797 25.25 175.797 23.81C175.797 22.37 175.517 21.16 174.957 20.18C174.397 19.18 173.657 18.44 172.737 17.96C171.837 17.48 170.857 17.24 169.797 17.24Z" fill="#F2DADC"/>
<path opacity="0.8" d="M3.675 9.8V16.45H10.55V17.825H3.675V24.55H11.3V26H1.9V8.375H11.3V9.8H3.675ZM21.1762 12.1C22.7595 12.1 24.0428 12.6083 25.0262 13.625C26.0262 14.625 26.5262 16.1 26.5262 18.05V26H24.8012V18.175C24.8012 16.6917 24.4262 15.5583 23.6762 14.775C22.9262 13.975 21.9012 13.575 20.6012 13.575C19.2345 13.575 18.1428 14.0167 17.3262 14.9C16.5262 15.7667 16.1262 17.05 16.1262 18.75V26H14.3512V12.35H16.1262V15.7C16.4762 14.5333 17.1095 13.6417 18.0262 13.025C18.9428 12.4083 19.9928 12.1 21.1762 12.1ZM36.2453 12.175C37.9786 12.175 39.412 12.6333 40.5453 13.55C41.6953 14.4667 42.3953 15.6833 42.6453 17.2H40.8203C40.637 16.1167 40.1286 15.2667 39.2953 14.65C38.462 14.0167 37.437 13.7 36.2203 13.7C35.337 13.7 34.5203 13.9 33.7703 14.3C33.037 14.7 32.4453 15.3167 31.9953 16.15C31.562 16.9667 31.3453 17.975 31.3453 19.175C31.3453 20.375 31.562 21.3917 31.9953 22.225C32.4453 23.0417 33.037 23.65 33.7703 24.05C34.5203 24.45 35.337 24.65 36.2203 24.65C37.437 24.65 38.462 24.3417 39.2953 23.725C40.1286 23.0917 40.637 22.2333 40.8203 21.15H42.6453C42.3953 22.6667 41.6953 23.8833 40.5453 24.8C39.412 25.7167 37.9786 26.175 36.2453 26.175C34.9453 26.175 33.787 25.9 32.7703 25.35C31.7703 24.7833 30.987 23.975 30.4203 22.925C29.8536 21.8583 29.5703 20.6083 29.5703 19.175C29.5703 17.7417 29.8536 16.5 30.4203 15.45C30.987 14.3833 31.7703 13.575 32.7703 13.025C33.787 12.4583 34.9453 12.175 36.2453 12.175ZM47.5715 15.175C47.9715 14.1917 48.6132 13.4333 49.4965 12.9C50.3798 12.3667 51.4548 12.1 52.7215 12.1V14H52.1465C50.8298 14 49.7382 14.3583 48.8715 15.075C48.0048 15.775 47.5715 16.925 47.5715 18.525V26H45.7965V12.35H47.5715V15.175ZM55.4244 12.35L60.1744 23.725L64.5494 12.35H66.4994L58.4744 32.45H56.4744L59.2244 25.85L53.4744 12.35H55.4244ZM76.0213 12.175C77.2713 12.175 78.3713 12.4583 79.3213 13.025C80.288 13.575 81.038 14.3833 81.5713 15.45C82.1213 16.5 82.3963 17.7417 82.3963 19.175C82.3963 20.5917 82.1213 21.8333 81.5713 22.9C81.038 23.95 80.288 24.7583 79.3213 25.325C78.3546 25.8917 77.2546 26.175 76.0213 26.175C74.6213 26.175 73.438 25.8167 72.4713 25.1C71.5046 24.3833 70.838 23.4333 70.4713 22.25V32.45H68.7213V12.35H70.4713V16.1C70.838 14.9167 71.5046 13.9667 72.4713 13.25C73.438 12.5333 74.6213 12.175 76.0213 12.175ZM75.5463 13.725C74.5796 13.725 73.7046 13.95 72.9213 14.4C72.1546 14.85 71.5546 15.4917 71.1213 16.325C70.688 17.1417 70.4713 18.0917 70.4713 19.175C70.4713 20.2583 70.688 21.2167 71.1213 22.05C71.5546 22.8667 72.1546 23.5 72.9213 23.95C73.7046 24.4 74.5796 24.625 75.5463 24.625C77.0963 24.625 78.3296 24.1417 79.2463 23.175C80.163 22.1917 80.6213 20.8583 80.6213 19.175C80.6213 17.4917 80.163 16.1667 79.2463 15.2C78.3296 14.2167 77.0963 13.725 75.5463 13.725ZM91.7426 24.45V26H90.1176C88.8009 26 87.8176 25.6917 87.1676 25.075C86.5176 24.4417 86.1926 23.3833 86.1926 21.9V13.875H84.1176V12.35H86.1926V8.9H87.9676V12.35H91.7176V13.875H87.9676V21.925C87.9676 22.8917 88.1426 23.5583 88.4926 23.925C88.8426 24.275 89.4592 24.45 90.3426 24.45H91.7426ZM101.494 12.35L106.244 23.725L110.619 12.35H112.569L104.544 32.45H102.544L105.294 25.85L99.5438 12.35H101.494ZM120.966 12.175C122.266 12.175 123.424 12.4583 124.441 13.025C125.474 13.575 126.282 14.3833 126.866 15.45C127.449 16.5 127.741 17.7417 127.741 19.175C127.741 20.6083 127.449 21.85 126.866 22.9C126.282 23.95 125.474 24.7583 124.441 25.325C123.424 25.8917 122.266 26.175 120.966 26.175C119.666 26.175 118.499 25.8917 117.466 25.325C116.432 24.7583 115.616 23.95 115.016 22.9C114.432 21.8333 114.141 20.5917 114.141 19.175C114.141 17.7417 114.432 16.5 115.016 15.45C115.616 14.3833 116.432 13.575 117.466 13.025C118.499 12.4583 119.666 12.175 120.966 12.175ZM120.966 13.7C120.066 13.7 119.232 13.9 118.466 14.3C117.699 14.7 117.082 15.3167 116.616 16.15C116.149 16.9667 115.916 17.975 115.916 19.175C115.916 20.375 116.149 21.3833 116.616 22.2C117.082 23.0167 117.699 23.625 118.466 24.025C119.232 24.425 120.066 24.625 120.966 24.625C121.849 24.625 122.666 24.425 123.416 24.025C124.182 23.625 124.799 23.0167 125.266 22.2C125.732 21.3833 125.966 20.375 125.966 19.175C125.966 17.975 125.732 16.9667 125.266 16.15C124.799 15.3167 124.182 14.7 123.416 14.3C122.666 13.9 121.849 13.7 120.966 13.7ZM142.654 12.35V26H140.904V22.625C140.554 23.8083 139.921 24.7083 139.004 25.325C138.088 25.9417 137.038 26.25 135.854 26.25C134.254 26.25 132.954 25.75 131.954 24.75C130.971 23.7333 130.479 22.25 130.479 20.3V12.35H132.229V20.15C132.229 21.65 132.604 22.8 133.354 23.6C134.104 24.3833 135.129 24.775 136.429 24.775C137.796 24.775 138.879 24.3417 139.679 23.475C140.496 22.5917 140.904 21.3 140.904 19.6V12.35H142.654ZM148.255 15.175C148.655 14.1917 149.297 13.4333 150.18 12.9C151.063 12.3667 152.138 12.1 153.405 12.1V14H152.83C151.513 14 150.422 14.3583 149.555 15.075C148.688 15.775 148.255 16.925 148.255 18.525V26H146.48V12.35H148.255V15.175ZM178.802 12.1C180.369 12.1 181.635 12.6083 182.602 13.625C183.585 14.625 184.077 16.1 184.077 18.05V26H182.327V18.175C182.327 16.7083 181.969 15.5833 181.252 14.8C180.552 14.0167 179.585 13.625 178.352 13.625C177.035 13.625 175.985 14.0583 175.202 14.925C174.419 15.7917 174.027 17.0667 174.027 18.75V26H172.302V18.175C172.302 16.7083 171.944 15.5833 171.227 14.8C170.527 14.0167 169.56 13.625 168.327 13.625C167.01 13.625 165.96 14.0583 165.177 14.925C164.394 15.7917 164.002 17.0667 164.002 18.75V26H162.227V12.35H164.002V15.6C164.335 14.45 164.935 13.5833 165.802 13C166.685 12.4 167.702 12.1 168.852 12.1C170.052 12.1 171.085 12.4167 171.952 13.05C172.819 13.6833 173.419 14.6167 173.752 15.85C174.119 14.6333 174.76 13.7083 175.677 13.075C176.594 12.425 177.635 12.1 178.802 12.1ZM193.714 24.725C194.948 24.725 195.981 24.4167 196.814 23.8C197.648 23.1833 198.148 22.35 198.314 21.3H200.164C199.914 22.75 199.223 23.925 198.089 24.825C196.956 25.725 195.523 26.175 193.789 26.175C192.489 26.175 191.331 25.9 190.314 25.35C189.314 24.7833 188.531 23.975 187.964 22.925C187.398 21.8583 187.114 20.6083 187.114 19.175C187.114 17.7417 187.398 16.5 187.964 15.45C188.531 14.3833 189.314 13.575 190.314 13.025C191.331 12.4583 192.489 12.175 193.789 12.175C195.123 12.175 196.273 12.4583 197.239 13.025C198.223 13.575 198.964 14.3167 199.464 15.25C199.981 16.1833 200.239 17.2 200.239 18.3C200.239 18.7667 200.206 19.1917 200.139 19.575H188.839C188.856 20.725 189.089 21.6917 189.539 22.475C190.006 23.2417 190.606 23.8083 191.339 24.175C192.073 24.5417 192.864 24.725 193.714 24.725ZM193.789 13.6C192.906 13.6 192.098 13.7833 191.364 14.15C190.631 14.5167 190.031 15.0833 189.564 15.85C189.114 16.6 188.873 17.5417 188.839 18.675H198.489C198.556 17.5583 198.373 16.6167 197.939 15.85C197.506 15.0833 196.923 14.5167 196.189 14.15C195.456 13.7833 194.656 13.6 193.789 13.6ZM207.514 12.175C208.998 12.175 210.189 12.5667 211.089 13.35C211.989 14.1333 212.539 15.1917 212.739 16.525H211.064C210.964 15.6417 210.598 14.9167 209.964 14.35C209.348 13.7667 208.514 13.475 207.464 13.475C206.564 13.475 205.856 13.7 205.339 14.15C204.839 14.5833 204.589 15.1667 204.589 15.9C204.589 16.45 204.748 16.8917 205.064 17.225C205.398 17.5583 205.806 17.8167 206.289 18C206.773 18.1667 207.423 18.3417 208.239 18.525C209.239 18.7583 210.039 19 210.639 19.25C211.256 19.4833 211.781 19.8583 212.214 20.375C212.648 20.8917 212.864 21.5917 212.864 22.475C212.864 23.5583 212.456 24.45 211.639 25.15C210.839 25.8333 209.773 26.175 208.439 26.175C206.873 26.175 205.589 25.7917 204.589 25.025C203.589 24.2417 202.998 23.175 202.814 21.825H204.514C204.614 22.725 205.006 23.4583 205.689 24.025C206.373 24.5917 207.298 24.875 208.464 24.875C209.331 24.875 210.006 24.65 210.489 24.2C210.973 23.75 211.214 23.1667 211.214 22.45C211.214 21.8667 211.048 21.4 210.714 21.05C210.381 20.7 209.964 20.4417 209.464 20.275C208.981 20.0917 208.314 19.9 207.464 19.7C206.481 19.4667 205.689 19.2333 205.089 19C204.506 18.7667 204.006 18.4083 203.589 17.925C203.173 17.425 202.964 16.75 202.964 15.9C202.964 14.7833 203.373 13.8833 204.189 13.2C205.006 12.5167 206.114 12.175 207.514 12.175ZM220.185 12.175C221.668 12.175 222.86 12.5667 223.76 13.35C224.66 14.1333 225.21 15.1917 225.41 16.525H223.735C223.635 15.6417 223.268 14.9167 222.635 14.35C222.018 13.7667 221.185 13.475 220.135 13.475C219.235 13.475 218.527 13.7 218.01 14.15C217.51 14.5833 217.26 15.1667 217.26 15.9C217.26 16.45 217.418 16.8917 217.735 17.225C218.068 17.5583 218.477 17.8167 218.96 18C219.443 18.1667 220.093 18.3417 220.91 18.525C221.91 18.7583 222.71 19 223.31 19.25C223.927 19.4833 224.452 19.8583 224.885 20.375C225.318 20.8917 225.535 21.5917 225.535 22.475C225.535 23.5583 225.127 24.45 224.31 25.15C223.51 25.8333 222.443 26.175 221.11 26.175C219.543 26.175 218.26 25.7917 217.26 25.025C216.26 24.2417 215.668 23.175 215.485 21.825H217.185C217.285 22.725 217.677 23.4583 218.36 24.025C219.043 24.5917 219.968 24.875 221.135 24.875C222.002 24.875 222.677 24.65 223.16 24.2C223.643 23.75 223.885 23.1667 223.885 22.45C223.885 21.8667 223.718 21.4 223.385 21.05C223.052 20.7 222.635 20.4417 222.135 20.275C221.652 20.0917 220.985 19.9 220.135 19.7C219.152 19.4667 218.36 19.2333 217.76 19C217.177 18.7667 216.677 18.4083 216.26 17.925C215.843 17.425 215.635 16.75 215.635 15.9C215.635 14.7833 216.043 13.8833 216.86 13.2C217.677 12.5167 218.785 12.175 220.185 12.175ZM234.481 12.175C235.864 12.175 237.039 12.5333 238.006 13.25C238.989 13.9667 239.664 14.9167 240.031 16.1V12.35H241.756V26H240.031V22.25C239.664 23.4333 238.989 24.3833 238.006 25.1C237.039 25.8167 235.864 26.175 234.481 26.175C233.248 26.175 232.139 25.8917 231.156 25.325C230.189 24.7583 229.431 23.95 228.881 22.9C228.348 21.8333 228.081 20.5917 228.081 19.175C228.081 17.7417 228.348 16.5 228.881 15.45C229.431 14.3833 230.189 13.575 231.156 13.025C232.123 12.4583 233.231 12.175 234.481 12.175ZM234.931 13.725C233.398 13.725 232.164 14.2167 231.231 15.2C230.314 16.1667 229.856 17.4917 229.856 19.175C229.856 20.8583 230.314 22.1917 231.231 23.175C232.164 24.1417 233.398 24.625 234.931 24.625C235.898 24.625 236.764 24.4 237.531 23.95C238.314 23.5 238.923 22.8667 239.356 22.05C239.806 21.2167 240.031 20.2583 240.031 19.175C240.031 18.0917 239.806 17.1417 239.356 16.325C238.923 15.4917 238.314 14.85 237.531 14.4C236.764 13.95 235.898 13.725 234.931 13.725ZM251.302 12.175C252.686 12.175 253.861 12.5333 254.827 13.25C255.811 13.9667 256.486 14.9167 256.852 16.1V12.35H258.577V26.325C258.577 27.5917 258.311 28.7 257.777 29.65C257.244 30.6167 256.502 31.3583 255.552 31.875C254.602 32.4083 253.519 32.675 252.302 32.675C250.519 32.675 249.052 32.2417 247.902 31.375C246.769 30.525 246.027 29.3667 245.677 27.9H247.427C247.727 28.9 248.277 29.6917 249.077 30.275C249.894 30.8583 250.936 31.15 252.202 31.15C253.069 31.15 253.852 30.9583 254.552 30.575C255.269 30.2083 255.827 29.6583 256.227 28.925C256.644 28.1917 256.852 27.325 256.852 26.325V22.25C256.486 23.4333 255.811 24.3833 254.827 25.1C253.861 25.8167 252.686 26.175 251.302 26.175C250.069 26.175 248.961 25.8917 247.977 25.325C247.011 24.7583 246.252 23.95 245.702 22.9C245.169 21.8333 244.902 20.5917 244.902 19.175C244.902 17.7417 245.169 16.5 245.702 15.45C246.252 14.3833 247.011 13.575 247.977 13.025C248.944 12.4583 250.052 12.175 251.302 12.175ZM251.752 13.725C250.219 13.725 248.986 14.2167 248.052 15.2C247.136 16.1667 246.677 17.4917 246.677 19.175C246.677 20.8583 247.136 22.1917 248.052 23.175C248.986 24.1417 250.219 24.625 251.752 24.625C252.719 24.625 253.586 24.4 254.352 23.95C255.136 23.5 255.744 22.8667 256.177 22.05C256.627 21.2167 256.852 20.2583 256.852 19.175C256.852 18.0917 256.627 17.1417 256.177 16.325C255.744 15.4917 255.136 14.85 254.352 14.4C253.586 13.95 252.719 13.725 251.752 13.725ZM268.324 24.725C269.557 24.725 270.59 24.4167 271.424 23.8C272.257 23.1833 272.757 22.35 272.924 21.3H274.774C274.524 22.75 273.832 23.925 272.699 24.825C271.565 25.725 270.132 26.175 268.399 26.175C267.099 26.175 265.94 25.9 264.924 25.35C263.924 24.7833 263.14 23.975 262.574 22.925C262.007 21.8583 261.724 20.6083 261.724 19.175C261.724 17.7417 262.007 16.5 262.574 15.45C263.14 14.3833 263.924 13.575 264.924 13.025C265.94 12.4583 267.099 12.175 268.399 12.175C269.732 12.175 270.882 12.4583 271.849 13.025C272.832 13.575 273.574 14.3167 274.074 15.25C274.59 16.1833 274.849 17.2 274.849 18.3C274.849 18.7667 274.815 19.1917 274.749 19.575H263.449C263.465 20.725 263.699 21.6917 264.149 22.475C264.615 23.2417 265.215 23.8083 265.949 24.175C266.682 24.5417 267.474 24.725 268.324 24.725ZM268.399 13.6C267.515 13.6 266.707 13.7833 265.974 14.15C265.24 14.5167 264.64 15.0833 264.174 15.85C263.724 16.6 263.482 17.5417 263.449 18.675H273.099C273.165 17.5583 272.982 16.6167 272.549 15.85C272.115 15.0833 271.532 14.5167 270.799 14.15C270.065 13.7833 269.265 13.6 268.399 13.6ZM282.124 12.175C283.607 12.175 284.799 12.5667 285.699 13.35C286.599 14.1333 287.149 15.1917 287.349 16.525H285.674C285.574 15.6417 285.207 14.9167 284.574 14.35C283.957 13.7667 283.124 13.475 282.074 13.475C281.174 13.475 280.465 13.7 279.949 14.15C279.449 14.5833 279.199 15.1667 279.199 15.9C279.199 16.45 279.357 16.8917 279.674 17.225C280.007 17.5583 280.415 17.8167 280.899 18C281.382 18.1667 282.032 18.3417 282.849 18.525C283.849 18.7583 284.649 19 285.249 19.25C285.865 19.4833 286.39 19.8583 286.824 20.375C287.257 20.8917 287.474 21.5917 287.474 22.475C287.474 23.5583 287.065 24.45 286.249 25.15C285.449 25.8333 284.382 26.175 283.049 26.175C281.482 26.175 280.199 25.7917 279.199 25.025C278.199 24.2417 277.607 23.175 277.424 21.825H279.124C279.224 22.725 279.615 23.4583 280.299 24.025C280.982 24.5917 281.907 24.875 283.074 24.875C283.94 24.875 284.615 24.65 285.099 24.2C285.582 23.75 285.824 23.1667 285.824 22.45C285.824 21.8667 285.657 21.4 285.324 21.05C284.99 20.7 284.574 20.4417 284.074 20.275C283.59 20.0917 282.924 19.9 282.074 19.7C281.09 19.4667 280.299 19.2333 279.699 19C279.115 18.7667 278.615 18.4083 278.199 17.925C277.782 17.425 277.574 16.75 277.574 15.9C277.574 14.7833 277.982 13.8833 278.799 13.2C279.615 12.5167 280.724 12.175 282.124 12.175Z" transform="translate(0 146)" fill="#F2DADC"/>
</svg>
