<svg width="950" height="783" viewBox="0 0 950 783" fill="none" xmlns="http://www.w3.org/2000/svg">
<g opacity="0.1">
<path d="M841.88 241.027L810.842 210.007C807.754 206.921 803.569 205.189 799.201 205.189C794.836 205.189 790.649 206.921 787.561 210.007L743.394 254.149V183.234C743.394 82.1992 661.144 0 560.044 0H183.348C82.2502 0 0 82.1992 0 183.234V346.812C0 355.897 7.36736 363.262 16.4597 363.262H60.3522C69.4445 363.262 76.8119 355.897 76.8119 346.812V183.234C76.8119 124.527 124.602 76.7643 183.348 76.7643H560.046C618.79 76.7643 666.584 124.527 666.584 183.234V254.149L622.418 210.007C619.33 206.921 615.145 205.189 610.777 205.189C606.412 205.189 602.225 206.921 599.137 210.007L568.099 241.027C565.013 244.11 563.279 248.295 563.279 252.658C563.279 257.02 565.013 261.205 568.099 264.288L693.348 389.46C696.563 392.671 700.777 394.279 704.988 394.279C709.2 394.279 713.413 392.673 716.629 389.46L841.878 264.288C844.964 261.205 846.697 257.02 846.697 252.658C846.7 248.293 844.966 244.11 841.88 241.027Z" transform="translate(103.302)" fill="#FAE1E0" fill-opacity="0.62"/>
<path d="M830.24 31.0188H786.348C777.255 31.0188 769.888 38.3838 769.888 47.4683V211.046C769.888 269.753 722.095 317.516 663.35 317.516H286.651C227.905 317.516 180.115 269.753 180.115 211.046V140.131L224.282 184.271C227.37 187.357 231.557 189.09 235.922 189.09C240.287 189.09 244.473 187.357 247.563 184.271L278.601 153.252C281.687 150.168 283.421 145.983 283.421 141.621C283.421 137.258 281.687 133.074 278.601 129.99L153.352 4.81805C146.921 -1.60602 136.501 -1.60602 130.073 4.81805L4.8194 129.99C1.73375 133.074 0 137.258 0 141.621C0 145.983 1.73375 150.168 4.8194 153.252L35.858 184.271C38.9458 187.357 43.131 189.09 47.4983 189.09C51.8656 189.09 56.0507 187.357 59.1386 184.271L103.305 140.131V211.046C103.305 312.081 185.556 394.28 286.653 394.28H663.352C764.45 394.28 846.702 312.081 846.702 211.046V47.4683C846.7 38.3816 839.33 31.0188 830.24 31.0188Z" transform="translate(0 388.72)" fill="#FAE1E0" fill-opacity="0.62"/>
</g>
</svg>
