<svg xmlns="http://www.w3.org/2000/svg" width="268.781" height="397.001" viewBox="0 0 268.781 397.001">
  <metadata><?xpacket begin="﻿" id="W5M0MpCehiHzreSzNTczkc9d"?>
<x:xmpmeta xmlns:x="adobe:ns:meta/" x:xmptk="Adobe XMP Core 5.6-c142 79.160924, 2017/07/13-01:06:39        ">
   <rdf:RDF xmlns:rdf="http://www.w3.org/1999/02/22-rdf-syntax-ns#">
      <rdf:Description rdf:about=""/>
   </rdf:RDF>
</x:xmpmeta>
                                                                                                    
                                                                                                    
                                                                                                    
                                                                                                    
                                                                                                    
                                                                                                    
                                                                                                    
                                                                                                    
                                                                                                    
                                                                                                    
                                                                                                    
                                                                                                    
                                                                                                    
                                                                                                    
                                                                                                    
                                                                                                    
                                                                                                    
                                                                                                    
                                                                                                    
                                                                                                    
                           
<?xpacket end="w"?></metadata>
<defs>
    <style>
      .cls-1 {
        fill: #fff;
        fill-rule: evenodd;
      }
    </style>
  </defs>
  <path id="Forma_1" data-name="Forma 1" class="cls-1" d="M498.12,1099.7A13.768,13.768,0,0,0,512,1085.74v-28.6a100.673,100.673,0,0,0-31.143-73.206,175.457,175.457,0,0,0,2.369-26.217c0-97.036-91.736-190.668-95.8-194.413a13.516,13.516,0,0,0-9.816-4.086h0a13.517,13.517,0,0,0-9.817,4.086c-3.723,4.087-95.122,97.719-95.122,194.413a162.323,162.323,0,0,0,2.031,25.537,102.523,102.523,0,0,0-31.482,73.886v28.6a13.88,13.88,0,1,0,27.759,0v-28.6a76.58,76.58,0,0,1,11.847-40.52,270.742,270.742,0,0,0,16.588,39.16,13.624,13.624,0,0,0,12.525,7.49H364.07v22.47a13.879,13.879,0,1,0,27.757,0v-22.47H444.3c5.078,0,9.817-3.07,12.525-7.49a246.378,246.378,0,0,0,16.249-38.48,74.815,74.815,0,0,1,11.51,39.84v28.6A13.483,13.483,0,0,0,498.12,1099.7ZM435.5,1035.35H391.489v-22.47a13.88,13.88,0,1,0-27.759,0v22.47H320.4c-7.785-16.69-13.54-33.03-16.587-48.01a9.991,9.991,0,0,0-.677-3.064,147.387,147.387,0,0,1-2.708-26.559c0-67.413,54.5-137.553,77.181-163.77,23.019,26.217,77.858,96.015,77.858,163.77C455.468,981.211,448.7,1007.43,435.5,1035.35ZM328.187,918.223c0,27.579,22.341,50.391,50.1,50.391a50.392,50.392,0,0,0,0-100.783C350.528,867.831,328.187,890.644,328.187,918.223Zm50.1-22.131a22.472,22.472,0,1,1-22.343,22.471A22.386,22.386,0,0,1,378.287,896.092Zm-63.64,246.168v-46.65a13.879,13.879,0,1,0-27.758,0v46.65A13.879,13.879,0,1,0,314.647,1142.26Zm153.683,0v-46.65a13.879,13.879,0,1,0-27.757,0v46.65a13.768,13.768,0,0,0,13.879,13.96A13.982,13.982,0,0,0,468.33,1142.26Z" transform="translate(-243.219 -759.219)"/>
</svg>
